<?xml version="1.0" encoding="UTF-8"?>
<!DOCTYPE svg PUBLIC "-//W3C//DTD SVG 1.1//EN" "http://www.w3.org/Graphics/SVG/1.1/DTD/svg11.dtd">
<svg version="1.1" xmlns="http://www.w3.org/2000/svg" xmlns:xlink="http://www.w3.org/1999/xlink" x="0" y="0" width="500" height="380" viewBox="0, 0, 500, 380">
  <defs>
    <linearGradient id="Gradient_1" gradientUnits="userSpaceOnUse" x1="77.421" y1="80.724" x2="47.005" y2="12.912" gradientTransform="matrix(1, 0, 0, 1, 1.791, -0.278)">
      <stop offset="0" stop-color="#009BBA"/>
      <stop offset="1" stop-color="#FFFFFF"/>
    </linearGradient>
    <linearGradient id="Gradient_2" gradientUnits="userSpaceOnUse" x1="168.192" y1="110.811" x2="85.322" y2="-23.737" gradientTransform="matrix(1, 0, 0, 1, 141.791, -0.278)">
      <stop offset="0" stop-color="#98BF0C"/>
      <stop offset="1" stop-color="#FFFFFF"/>
    </linearGradient>
    <linearGradient id="Gradient_3" gradientUnits="userSpaceOnUse" x1="77.421" y1="80.724" x2="47.005" y2="12.912" gradientTransform="matrix(1, 0, 0, 1, 211.791, 209.722)">
      <stop offset="0" stop-color="#009BBA"/>
      <stop offset="1" stop-color="#FFFFFF"/>
    </linearGradient>
    <linearGradient id="Gradient_4" gradientUnits="userSpaceOnUse" x1="168.192" y1="110.811" x2="85.322" y2="-23.737" gradientTransform="matrix(1, 0, 0, 1, 281.791, -0.278)">
      <stop offset="0" stop-color="#98BF0C"/>
      <stop offset="1" stop-color="#FFFFFF"/>
    </linearGradient>
    <linearGradient id="Gradient_5" gradientUnits="userSpaceOnUse" x1="-110.808" y1="110.811" x2="-193.678" y2="-23.737" gradientTransform="matrix(1, 0, 0, 1, 211.791, 209.722)">
      <stop offset="0" stop-color="#98BF0C"/>
      <stop offset="1" stop-color="#FFFFFF"/>
    </linearGradient>
    <linearGradient id="Gradient_6" gradientUnits="userSpaceOnUse" x1="168.192" y1="110.811" x2="85.322" y2="-23.737" gradientTransform="matrix(1, 0, 0, 1, 1.791, -0.278)">
      <stop offset="0" stop-color="#98BF0C"/>
      <stop offset="1" stop-color="#FFFFFF"/>
    </linearGradient>
    <linearGradient id="Gradient_7" gradientUnits="userSpaceOnUse" x1="77.421" y1="80.724" x2="47.005" y2="12.912" gradientTransform="matrix(1, 0, 0, 1, 71.791, 209.722)">
      <stop offset="0" stop-color="#009BBA"/>
      <stop offset="1" stop-color="#FFFFFF"/>
    </linearGradient>
    <linearGradient id="Gradient_8" gradientUnits="userSpaceOnUse" x1="77.421" y1="80.724" x2="47.005" y2="12.912" gradientTransform="matrix(1, 0, 0, 1, 141.791, -0.278)">
      <stop offset="0" stop-color="#009BBA"/>
      <stop offset="1" stop-color="#FFFFFF"/>
    </linearGradient>
    <linearGradient id="Gradient_9" gradientUnits="userSpaceOnUse" x1="76.421" y1="80.724" x2="46.005" y2="12.912" gradientTransform="matrix(1, 0, 0, 1, 351.791, 209.722)">
      <stop offset="0" stop-color="#009BBA"/>
      <stop offset="1" stop-color="#FFFFFF"/>
    </linearGradient>
    <linearGradient id="Gradient_10" gradientUnits="userSpaceOnUse" x1="168.192" y1="110.811" x2="85.322" y2="-23.737" gradientTransform="matrix(1, 0, 0, 1, 71.791, 209.722)">
      <stop offset="0" stop-color="#98BF0C"/>
      <stop offset="1" stop-color="#FFFFFF"/>
    </linearGradient>
    <linearGradient id="Gradient_11" gradientUnits="userSpaceOnUse" x1="449.192" y1="110.811" x2="366.322" y2="-23.737" gradientTransform="matrix(1, 0, 0, 1, -68.209, 209.722)">
      <stop offset="0" stop-color="#98BF0C"/>
      <stop offset="1" stop-color="#FFFFFF"/>
    </linearGradient>
    <linearGradient id="Gradient_12" gradientUnits="userSpaceOnUse" x1="77.421" y1="80.724" x2="47.005" y2="12.912" gradientTransform="matrix(1, 0, 0, 1, 281.791, -0.278)">
      <stop offset="0" stop-color="#009BBA"/>
      <stop offset="1" stop-color="#FFFFFF"/>
    </linearGradient>
    <linearGradient id="Gradient_13" gradientUnits="userSpaceOnUse" x1="281.546" y1="206.89" x2="266.174" y2="86.336" gradientTransform="matrix(1.61, 0, 0, 1.61, -293.79, -131.753)">
      <stop offset="0" stop-color="#98BF0C"/>
      <stop offset="1" stop-color="#FFFFFF"/>
    </linearGradient>
    <linearGradient id="Gradient_14" gradientUnits="userSpaceOnUse" x1="301.036" y1="215.857" x2="300.185" y2="132.139" gradientTransform="matrix(1.61, 0, 0, 1.61, -293.79, -131.753)">
      <stop offset="0" stop-color="#009BBA"/>
      <stop offset="1" stop-color="#FFFFFF"/>
    </linearGradient>
    <linearGradient id="Gradient_15" gradientUnits="userSpaceOnUse" x1="237.82" y1="184.89" x2="241.17" y2="143.589" gradientTransform="matrix(1.61, 0, 0, 1.61, -293.79, -131.753)">
      <stop offset="0" stop-color="#1F211C"/>
      <stop offset="1" stop-color="#FFFFFF"/>
    </linearGradient>
    <clipPath id="Clip_1">
      <path d="M248.088,140.484 L452.071,140.484 L452.071,234.48 L248.088,234.48 z M280.19,148.645 Q284.453,148.645 284.453,152.096 Q284.453,155.315 280.422,155.315 L267.865,155.315 L267.865,148.645 L280.19,148.645 z M281.031,145.484 L264.385,145.484 L264.385,166.48 L267.865,166.48 L267.865,158.476 L280.364,158.476 Q284.105,158.476 286.062,156.823 Q288.02,155.17 288.02,152.038 Q288.02,149.051 286.135,147.267 Q284.25,145.484 281.031,145.484 z M300.78,151.603 L305.014,159.491 L296.517,159.491 L300.78,151.603 z M302.926,148.645 L298.605,148.645 L288.89,166.48 L292.718,166.48 L294.777,162.652 L306.754,162.652 L308.813,166.48 L312.641,166.48 L302.926,148.645 z M329.751,151.806 Q333.115,151.806 333.115,154.358 Q333.115,156.765 329.954,156.765 L319.543,156.765 L319.543,151.806 L329.751,151.806 z M330.476,148.645 L316.063,148.645 L316.063,166.48 L319.543,166.48 L319.543,159.926 L329.896,159.926 Q333.173,159.926 334.927,158.461 Q336.682,156.997 336.682,154.3 Q336.682,151.719 335,150.182 Q333.318,148.645 330.476,148.645 z M341.641,148.645 L337.407,148.645 L347.499,159.462 L347.499,166.48 L350.979,166.48 L350.979,159.462 L361.129,148.645 L356.895,148.645 L349.268,156.765 L341.641,148.645 z M378.007,151.806 Q381.371,151.806 381.371,154.358 Q381.371,156.765 378.21,156.765 L367.799,156.765 L367.799,151.806 L378.007,151.806 z M378.732,148.645 L364.319,148.645 L364.319,166.48 L367.799,166.48 L367.799,159.926 L376.644,159.926 L381.313,166.48 L385.315,166.48 L380.501,159.723 Q384.938,158.737 384.938,154.3 Q384.938,151.719 383.256,150.182 Q381.574,148.645 378.732,148.645 z M425.19,148.181 Q420.666,148.181 418.157,149.674 Q415.649,151.168 415.649,153.72 Q415.649,155.837 417.215,156.939 Q418.781,158.041 422.087,158.36 Q422.928,158.447 426.64,158.621 Q429.018,158.737 430.149,159.056 Q432.179,159.636 432.179,161.057 Q432.179,162.333 430.526,163.101 Q428.873,163.87 425.857,163.87 Q420.492,163.87 416.809,161.289 L414.924,163.754 Q419.042,166.886 425.915,166.886 Q430.787,166.886 433.353,165.32 Q435.92,163.754 435.92,160.883 Q435.92,158.331 433.861,157.084 Q432.005,155.953 427.626,155.518 Q424.581,155.228 421.536,154.967 Q419.303,154.59 419.303,153.343 Q419.303,151.226 425.248,151.226 Q429.337,151.226 432.817,153.053 L434.963,150.791 Q431.222,148.181 425.19,148.181 z M393.522,148.645 L390.042,148.645 L390.042,160.622 Q390.042,163.435 392.855,165.218 Q395.668,167.002 400.424,167.002 Q405.151,167.002 407.964,165.218 Q410.777,163.435 410.777,160.622 L410.777,148.645 L407.297,148.645 L407.297,159.926 Q407.297,163.87 400.424,163.87 Q393.522,163.87 393.522,159.926 L393.522,148.645 z M332.81,180.145 L314.279,180.145 L314.279,197.98 L317.759,197.98 L317.759,190.295 L328.228,190.295 L328.228,187.134 L317.759,187.134 L317.759,183.306 L332.81,183.306 L332.81,180.145 z M377.673,183.306 Q381.037,183.306 381.037,185.858 Q381.037,188.265 377.876,188.265 L367.465,188.265 L367.465,183.306 L377.673,183.306 z M378.398,180.145 L363.985,180.145 L363.985,197.98 L367.465,197.98 L367.465,191.426 L376.31,191.426 L380.979,197.98 L384.981,197.98 L380.167,191.223 Q384.604,190.237 384.604,185.8 Q384.604,183.219 382.922,181.682 Q381.24,180.145 378.398,180.145 z M347.252,182.697 Q350.819,182.697 353.081,184.48 Q355.343,186.264 355.343,189.019 Q355.343,191.861 353.125,193.615 Q350.906,195.37 347.252,195.37 Q343.569,195.37 341.336,193.615 Q339.103,191.861 339.103,189.019 Q339.103,186.293 341.38,184.495 Q343.656,182.697 347.252,182.697 z M347.252,179.536 Q342.583,179.536 339.277,181.943 Q335.507,184.669 335.507,189.019 Q335.507,193.427 339.248,196.153 Q342.467,198.502 347.252,198.502 Q352.037,198.502 355.227,196.153 Q358.968,193.398 358.968,189.019 Q358.968,184.698 355.198,181.943 Q351.892,179.536 347.252,179.536 z M359.693,218.634 L347.774,218.634 L347.774,221.795 L359.693,221.795 L359.693,218.634 z M266.806,211.645 Q271.156,211.645 271.156,215.096 Q271.156,218.315 267.125,218.315 L254.568,218.315 L254.568,211.645 L266.806,211.645 z M267.647,208.484 L251.088,208.484 L251.088,229.48 L254.568,229.48 L254.568,221.476 L265.182,221.476 L270.866,229.48 L274.897,229.48 L269.271,221.302 Q271.765,220.896 273.186,219.388 Q274.723,217.764 274.723,215.096 Q274.723,212.051 272.838,210.267 Q270.953,208.484 267.647,208.484 z M298.387,211.645 L279.856,211.645 L279.856,229.48 L299.054,229.48 L299.054,226.319 L283.336,226.319 L283.336,221.795 L293.805,221.795 L293.805,218.634 L283.336,218.634 L283.336,214.806 L298.387,214.806 L298.387,211.645 z M312.771,214.603 L317.005,222.491 L308.508,222.491 L312.771,214.603 z M314.917,211.645 L310.596,211.645 L300.881,229.48 L304.709,229.48 L306.768,225.652 L318.745,225.652 L320.804,229.48 L324.632,229.48 L314.917,211.645 z M331.534,211.645 L328.054,211.645 L328.054,229.48 L345.309,229.48 L345.309,226.319 L331.534,226.319 L331.534,211.645 z M385.561,208.484 L362.013,208.484 L362.013,211.645 L372.047,211.645 L372.047,229.48 L375.527,229.48 L375.527,211.645 L385.561,211.645 L385.561,208.484 z M392.666,211.645 L389.186,211.645 L389.186,229.48 L392.666,229.48 L392.666,211.645 z M403.976,211.645 L398.756,211.645 L398.756,229.48 L402.236,229.48 L402.236,214.806 L402.323,214.69 L411.255,226.957 L420.216,214.806 L420.303,229.48 L423.783,229.48 L423.783,211.645 L418.563,211.645 L411.255,221.737 L403.976,211.645 z M448.404,211.645 L429.873,211.645 L429.873,229.48 L449.071,229.48 L449.071,226.319 L433.353,226.319 L433.353,221.795 L443.822,221.795 L443.822,218.634 L433.353,218.634 L433.353,214.806 L448.404,214.806 L448.404,211.645 z"/>
    </clipPath>
    <filter id="Shadow_2">
      <feGaussianBlur in="SourceAlpha" stdDeviation="1"/>
      <feOffset dx="0" dy="2" result="offsetblur"/>
      <feFlood flood-color="#959595"/>
      <feComposite in2="offsetblur" operator="in"/>
    </filter>
    <clipPath id="Clip_3">
      <path d="M342.285,234.424 L456.417,234.424 L456.417,255.632 L342.285,255.632 z M346.881,241.56 L345.285,241.56 L349.365,248.94 L351.021,248.94 L355.101,241.56 L353.505,241.56 L350.193,247.692 L346.881,241.56 z M358.329,240.252 L356.901,240.252 Q356.289,240.792 355.497,241.044 L355.497,242.292 L356.889,241.692 L356.889,248.94 L358.329,248.94 L358.329,240.252 z M362.817,247.632 L360.957,247.632 L360.957,248.94 L362.817,248.94 L362.817,247.632 z M399.237,241.56 L397.425,241.56 L401.133,245.196 L397.293,248.94 L399.105,248.94 L402.045,246.048 L404.985,248.94 L406.797,248.94 L402.957,245.196 L406.665,241.56 L404.853,241.56 L402.045,244.344 L399.237,241.56 z M408.765,241.56 L407.013,241.56 L411.189,246.036 L411.189,248.94 L412.629,248.94 L412.629,246.036 L416.829,241.56 L415.077,241.56 L411.921,244.92 L408.765,241.56 z M437.109,241.56 L429.441,241.56 L429.441,248.94 L437.385,248.94 L437.385,247.632 L430.881,247.632 L430.881,245.76 L435.213,245.76 L435.213,244.452 L430.881,244.452 L430.881,242.868 L437.109,242.868 L437.109,241.56 z M441.393,241.56 L439.245,241.56 L439.245,248.94 L440.685,248.94 L440.685,242.784 L445.701,248.94 L447.849,248.94 L447.849,241.56 L446.409,241.56 L446.409,247.716 L441.393,241.56 z M369.609,241.44 Q370.977,241.44 371.847,242.322 Q372.717,243.204 372.717,244.596 Q372.717,245.976 371.841,246.864 Q370.965,247.752 369.609,247.752 Q368.253,247.752 367.377,246.864 Q366.501,245.976 366.501,244.596 Q366.501,243.204 367.371,242.322 Q368.241,241.44 369.609,241.44 z M369.609,240.156 Q367.737,240.156 366.417,241.44 Q365.049,242.772 365.049,244.596 Q365.049,246.432 366.405,247.764 Q367.725,249.06 369.609,249.06 Q371.481,249.06 372.825,247.752 Q374.169,246.444 374.169,244.596 Q374.169,242.772 372.813,241.44 Q371.505,240.156 369.609,240.156 z M422.637,241.308 Q420.609,241.308 419.253,242.304 Q417.705,243.432 417.705,245.232 Q417.705,247.056 419.253,248.184 Q420.585,249.156 422.553,249.156 Q424.737,249.156 426.051,248.04 Q427.365,246.924 427.365,245.124 L427.365,244.896 L422.241,244.896 L422.241,246.204 L425.565,246.204 Q424.821,247.86 422.553,247.86 Q421.041,247.86 420.117,247.128 Q419.193,246.396 419.193,245.232 Q419.193,244.104 420.141,243.36 Q421.089,242.616 422.553,242.616 Q424.209,242.616 425.337,243.696 L426.693,243.024 Q425.085,241.308 422.637,241.308 z M390.573,241.296 Q392.229,241.296 393.345,242.112 Q394.641,243.06 394.641,244.584 Q394.641,246.048 393.531,246.96 Q392.421,247.872 390.573,247.872 Q388.713,247.872 387.597,246.966 Q386.481,246.06 386.481,244.584 Q386.481,243.156 387.621,242.226 Q388.761,241.296 390.573,241.296 z M390.573,239.976 Q388.317,239.976 386.757,241.152 Q384.981,242.496 384.981,244.584 Q384.981,246.708 386.733,248.028 Q388.269,249.192 390.573,249.192 Q392.853,249.192 394.389,248.04 Q396.141,246.72 396.141,244.584 Q396.141,242.496 394.377,241.152 Q392.841,239.976 390.573,239.976 z M383.277,239.424 Q381.585,239.604 380.709,241.02 Q379.665,242.7 379.665,245.052 Q379.665,247.392 380.709,249.06 Q381.573,250.452 383.277,250.632 L383.277,249.96 L383.265,249.96 Q382.293,249.96 381.693,248.658 Q381.093,247.356 381.093,245.052 Q381.093,242.772 381.729,241.404 Q382.329,240.096 383.253,240.096 L383.277,240.096 L383.277,239.424 z M449.805,239.424 L449.805,240.096 L449.829,240.096 Q450.753,240.096 451.353,241.404 Q451.989,242.784 451.989,245.052 Q451.989,247.344 451.377,248.676 Q450.777,249.96 449.817,249.96 L449.805,249.96 L449.805,250.632 Q451.521,250.44 452.373,249.072 Q453.417,247.392 453.417,245.052 Q453.417,242.736 452.361,241.02 Q451.497,239.604 449.805,239.424 z"/>
    </clipPath>
    <filter id="Shadow_4">
      <feGaussianBlur in="SourceAlpha" stdDeviation="1"/>
      <feOffset dx="0" dy="2" result="offsetblur"/>
      <feFlood flood-color="#959595"/>
      <feComposite in2="offsetblur" operator="in"/>
    </filter>
  </defs>
  <g id="Boxes">
    <g id="Outer_Border">
      <path d="M21.833,27.5 L480.833,27.5 L480.833,369.5 L21.833,369.5 z" fill="#FFFFFF"/>
      <path d="M21.833,27.5 L480.833,27.5 L480.833,369.5 L21.833,369.5 z" fill-opacity="0" stroke="#FFFFFF" stroke-width="1"/>
    </g>
    <g id="Inner_Border">
      <path d="M34.475,37.75 L470.192,37.75 L470.192,340.25 L34.475,340.25 z" fill="#FFFFFF"/>
      <path d="M34.475,37.75 L470.192,37.75 L470.192,340.25 L34.475,340.25 z" fill-opacity="0" stroke="#30AEC7" stroke-width="2"/>
    </g>
  </g>
  <g id="Industry_Icons_and_Box">
    <g id="plane_1-4">
      <path d="M60.951,53.5 L92.716,53.5 C100.513,53.5 106.833,59.821 106.833,67.618 L106.833,99.382 C106.833,107.179 100.513,113.5 92.716,113.5 L60.951,113.5 C53.154,113.5 46.833,107.179 46.833,99.382 L46.833,67.618 C46.833,59.821 53.154,53.5 60.951,53.5 z" fill="url(#Gradient_1)" id="background_1-4"/>
      <path d="M61.41,99.298 C60.029,97.918 61.458,96.489 62.888,95.06 C62.936,92.251 58.698,93.729 58.747,90.919 C58.796,88.11 64.366,90.822 67.175,90.773 C70.082,85.105 70.082,85.105 72.94,82.247 C71.609,78.057 61.849,74.014 59.089,71.254 C56.328,68.493 59.186,65.635 63.376,66.966 C67.566,68.298 74.516,72.39 80.086,75.101 C84.373,70.814 90.089,65.098 92.899,65.049 C95.708,65 95.708,65 95.659,67.809 C95.61,70.619 89.894,76.335 85.607,80.623 C88.318,86.192 92.41,93.143 93.742,97.332 C95.073,101.522 90.835,103 88.074,100.239 C85.314,97.479 82.651,89.099 78.461,87.768 C75.603,90.626 75.603,90.626 69.935,93.533 C69.887,96.343 72.598,101.913 69.789,101.961 C66.98,102.01 68.458,97.772 65.648,97.821 C64.219,99.25 62.79,100.679 61.41,99.298 z" fill="#FFFFFF" id="icon_1-4"/>
    </g>
    <g id="plane_4-4">
      <path d="M270.951,53.5 L302.716,53.5 C310.513,53.5 316.833,59.821 316.833,67.618 L316.833,99.382 C316.833,107.179 310.513,113.5 302.716,113.5 L270.951,113.5 C263.154,113.5 256.833,107.179 256.833,99.382 L256.833,67.618 C256.833,59.821 263.154,53.5 270.951,53.5 z" fill="url(#Gradient_2)" id="background_4-4"/>
      <path d="M271.41,99.298 C270.029,97.918 271.458,96.489 272.888,95.06 C272.936,92.251 268.698,93.729 268.747,90.919 C268.796,88.11 274.366,90.822 277.175,90.773 C280.082,85.105 280.082,85.105 282.94,82.247 C281.609,78.057 271.849,74.014 269.089,71.254 C266.328,68.493 269.186,65.635 273.376,66.966 C277.566,68.298 284.516,72.39 290.086,75.101 C294.373,70.814 300.089,65.098 302.899,65.049 C305.708,65 305.708,65 305.659,67.809 C305.61,70.619 299.894,76.335 295.607,80.623 C298.318,86.192 302.41,93.143 303.742,97.332 C305.073,101.522 300.835,103 298.074,100.239 C295.314,97.479 292.651,89.099 288.461,87.768 C285.603,90.626 285.603,90.626 279.935,93.533 C279.887,96.343 282.598,101.913 279.789,101.961 C276.98,102.01 278.457,97.772 275.648,97.821 C274.219,99.25 272.79,100.679 271.41,99.298 z" fill="#FFFFFF" id="icon_4-4"/>
    </g>
    <g id="plane_4-1">
      <path d="M270.951,263.5 L302.716,263.5 C310.513,263.5 316.833,269.821 316.833,277.618 L316.833,309.382 C316.833,317.179 310.513,323.5 302.716,323.5 L270.951,323.5 C263.154,323.5 256.833,317.179 256.833,309.382 L256.833,277.618 C256.833,269.821 263.154,263.5 270.951,263.5 z" fill="url(#Gradient_3)" id="background_4-1"/>
      <path d="M271.41,309.299 C270.029,307.918 271.458,306.489 272.888,305.06 C272.936,302.251 268.698,303.729 268.747,300.919 C268.796,298.11 274.366,300.822 277.175,300.773 C280.082,295.105 280.082,295.105 282.94,292.247 C281.609,288.057 271.849,284.014 269.089,281.254 C266.328,278.493 269.186,275.635 273.376,276.966 C277.566,278.298 284.516,282.39 290.086,285.101 C294.373,280.814 300.089,275.098 302.899,275.049 C305.708,275 305.708,275 305.659,277.809 C305.61,280.619 299.894,286.335 295.607,290.623 C298.318,296.192 302.41,303.143 303.742,307.332 C305.073,311.522 300.835,313 298.074,310.239 C295.314,307.479 292.651,299.099 288.461,297.768 C285.603,300.626 285.603,300.626 279.935,303.533 C279.887,306.343 282.598,311.913 279.789,311.961 C276.98,312.01 278.457,307.772 275.648,307.821 C274.219,309.25 272.79,310.679 271.41,309.299 z" fill="#FFFFFF" id="icon_4-1"/>
    </g>
    <g id="antenna_6-4">
      <path d="M410.951,53.5 L442.716,53.5 C450.513,53.5 456.833,59.821 456.833,67.618 L456.833,99.382 C456.833,107.179 450.513,113.5 442.716,113.5 L410.951,113.5 C403.154,113.5 396.833,107.179 396.833,99.382 L396.833,67.618 C396.833,59.821 403.154,53.5 410.951,53.5 z" fill="url(#Gradient_4)" id="background_6-4"/>
      <g id="icon_6-4">
        <path d="M436.972,80.64 C436.972,86.181 432.449,90.676 426.862,90.687 C421.275,90.698 416.734,86.22 416.712,80.679 C416.69,75.138 421.196,70.626 426.783,70.593 C432.369,70.561 436.928,75.021 436.972,80.562" fill="#FFFFFF" id="path4355-3"/>
        <path d="M426.842,86.421 L426.842,86.421 C428.238,86.421 429.369,87.731 429.369,89.346 L429.369,105.189 C429.369,106.805 428.238,108.114 426.842,108.114 L426.842,108.114 C425.446,108.114 424.315,106.805 424.315,105.189 L424.315,89.346 C424.315,87.731 425.446,86.421 426.842,86.421 z" fill="#FFFFFF" id="rect4357-1"/>
        <path d="M426.849,66.522 C419.271,66.522 412.945,72.716 412.945,80.634 C412.945,83.632 413.854,86.372 415.395,88.636 L416.715,87.316 C415.397,85.388 414.631,83.083 414.631,80.634 C414.631,74.137 420.013,68.638 426.849,68.638 C433.686,68.638 439.036,74.137 439.036,80.634 C439.036,83.078 438.277,85.374 436.968,87.3 L438.304,88.636 C439.84,86.372 440.738,83.632 440.738,80.634 C440.738,72.716 434.428,66.522 426.849,66.522 z" fill="#FFFFFF" id="path4355-2-2"/>
        <path d="M426.849,62.704 C417.162,62.704 409.11,70.591 409.11,80.618 C409.11,84.675 410.431,88.405 412.642,91.389 L413.979,90.052 C413.976,90.049 413.981,90.04 413.979,90.036 C411.989,87.386 410.813,84.114 410.813,80.618 C410.813,72.012 417.904,64.82 426.849,64.82 C435.795,64.82 442.854,72.012 442.854,80.618 C442.854,84.114 441.687,87.386 439.704,90.036 L441.041,91.373 C443.242,88.391 444.557,84.671 444.557,80.618 C444.557,70.591 436.537,62.704 426.849,62.704 z" fill="#FFFFFF" id="path4355-2-9-3"/>
        <path d="M426.849,58.886 C415.053,58.886 405.292,68.482 405.292,80.618 C405.292,85.736 407.028,90.413 409.922,94.109 L411.274,92.757 C408.601,89.394 407.01,85.168 407.01,80.618 C407.01,69.903 415.795,61.002 426.849,61.002 C437.904,61.002 446.673,69.903 446.673,80.618 C446.673,85.168 445.09,89.394 442.425,92.757 L443.761,94.109 C446.649,90.413 448.375,85.738 448.375,80.618 C448.375,68.482 438.645,58.886 426.849,58.886 z" fill="#FFFFFF" id="path4355-2-9-5-3"/>
      </g>
    </g>
    <g id="antenna_1-1">
      <path d="M61.951,263.5 L93.716,263.5 C101.513,263.5 107.833,269.821 107.833,277.618 L107.833,309.382 C107.833,317.179 101.513,323.5 93.716,323.5 L61.951,323.5 C54.154,323.5 47.833,317.179 47.833,309.382 L47.833,277.618 C47.833,269.821 54.154,263.5 61.951,263.5 z" fill="url(#Gradient_5)" id="background_1-1"/>
      <g id="icon_1-1">
        <path d="M87.972,290.64 C87.972,296.181 83.449,300.676 77.862,300.687 C72.275,300.698 67.734,296.22 67.712,290.679 C67.69,285.138 72.196,280.626 77.783,280.593 C83.369,280.561 87.928,285.021 87.971,290.562" fill="#FFFFFF" id="path4355-1"/>
        <path d="M77.842,296.421 L77.842,296.421 C79.238,296.421 80.369,297.731 80.369,299.346 L80.369,315.189 C80.369,316.805 79.238,318.114 77.842,318.114 L77.842,318.114 C76.446,318.114 75.315,316.805 75.315,315.189 L75.315,299.346 C75.315,297.731 76.446,296.421 77.842,296.421 z" fill="#FFFFFF" id="rect4357-3"/>
        <path d="M77.849,276.522 C70.271,276.522 63.944,282.716 63.944,290.634 C63.944,293.632 64.854,296.372 66.394,298.636 L67.715,297.316 C66.397,295.388 65.631,293.083 65.631,290.634 C65.631,284.137 71.012,278.638 77.849,278.638 C84.686,278.638 90.036,284.137 90.036,290.634 C90.036,293.078 89.277,295.374 87.968,297.3 L89.304,298.636 C90.84,296.372 91.738,293.632 91.738,290.634 C91.738,282.716 85.428,276.522 77.849,276.522 z" fill="#FFFFFF" id="path4355-2-8"/>
        <path d="M77.849,272.704 C68.162,272.704 60.11,280.591 60.11,290.618 C60.11,294.675 61.431,298.405 63.642,301.389 L64.979,300.052 C64.976,300.049 64.981,300.04 64.979,300.036 C62.989,297.386 61.813,294.114 61.813,290.618 C61.813,282.012 68.904,274.82 77.849,274.82 C86.795,274.82 93.854,282.012 93.854,290.618 C93.854,294.114 92.687,297.386 90.704,300.036 L92.04,301.373 C94.242,298.391 95.556,294.671 95.556,290.618 C95.556,280.591 87.536,272.704 77.849,272.704 z" fill="#FFFFFF" id="path4355-2-9-7"/>
        <path d="M77.849,268.886 C66.053,268.886 56.292,278.482 56.292,290.618 C56.292,295.736 58.028,300.413 60.922,304.109 L62.274,302.757 C59.601,299.394 58.01,295.168 58.01,290.618 C58.01,279.903 66.795,271.002 77.849,271.002 C88.904,271.002 97.672,279.903 97.672,290.618 C97.672,295.168 96.09,299.394 93.425,302.757 L94.761,304.109 C97.649,300.413 99.375,295.738 99.375,290.618 C99.375,278.482 89.645,268.886 77.849,268.886 z" fill="#FFFFFF" id="path4355-2-9-5-4"/>
      </g>
    </g>
    <g id="car_2-4">
      <path d="M130.951,53.5 L162.716,53.5 C170.513,53.5 176.833,59.821 176.833,67.618 L176.833,99.382 C176.833,107.179 170.513,113.5 162.716,113.5 L130.951,113.5 C123.154,113.5 116.833,107.179 116.833,99.382 L116.833,67.618 C116.833,59.821 123.154,53.5 130.951,53.5 z" fill="url(#Gradient_6)" id="background_2-4"/>
      <g id="icon_2-4">
        <path d="M138.846,68.472 C136.135,68.512 133.595,69.004 131.38,69.961 C127.835,71.491 125.101,74.368 124.356,78.249 C123.018,85.218 124.674,90.777 126.85,94.212 C127.179,94.73 127.745,95.05 128.358,95.064 L130.104,95.105 C130.939,97.674 133.352,99.531 136.199,99.531 C138.94,99.531 141.277,97.812 142.193,95.392 L149.392,95.562 C150.351,97.892 152.641,99.531 155.317,99.531 C157.885,99.531 160.1,98.022 161.123,95.84 L162.977,95.884 C163.094,95.887 163.21,95.878 163.324,95.859 C165.167,95.548 167.221,94.831 168.788,93.239 C170.356,91.648 171.201,89.102 170.594,86.139 C170.177,84.102 168.742,82.503 166.876,80.787 C165.01,79.071 162.616,77.341 159.989,75.722 C154.733,72.485 148.635,69.704 143.881,68.884 C142.162,68.588 140.473,68.447 138.846,68.472 z M139.428,72.149 C140.654,72.159 141.938,72.274 143.256,72.501 C147.104,73.165 153.11,75.796 158.063,78.848 C160.539,80.373 162.774,82.006 164.39,83.492 C166.006,84.978 166.905,86.417 166.999,86.877 C167.415,88.907 166.955,89.867 166.171,90.663 C165.412,91.434 164.126,91.97 162.844,92.207 L161.658,92.179 C161.201,89.085 158.533,86.716 155.317,86.716 C152.203,86.716 149.609,88.937 149.031,91.882 L142.452,91.726 C141.814,88.857 139.256,86.716 136.199,86.716 C133.244,86.716 130.758,88.714 130.017,91.434 L129.481,91.42 C128.025,88.701 126.907,84.423 127.959,78.943 C128.465,76.309 130.136,74.496 132.833,73.332 C134.519,72.604 136.602,72.19 138.906,72.152 C139.079,72.149 139.253,72.147 139.428,72.149 z" fill="#FFFFFF"/>
        <path d="M138.846,68.472 C136.135,68.512 133.595,69.004 131.38,69.961 C127.835,71.491 125.101,74.368 124.356,78.249 C123.018,85.218 124.674,90.777 126.85,94.212 C127.179,94.73 127.745,95.05 128.358,95.064 L130.104,95.105 C130.939,97.674 133.352,99.531 136.199,99.531 C138.94,99.531 141.277,97.812 142.193,95.392 L149.392,95.562 C150.351,97.892 152.641,99.531 155.317,99.531 C157.885,99.531 160.1,98.022 161.123,95.84 L162.977,95.884 C163.094,95.887 163.21,95.878 163.324,95.859 C165.167,95.548 167.221,94.831 168.788,93.239 C170.356,91.648 171.201,89.102 170.594,86.139 C170.177,84.102 168.742,82.503 166.876,80.787 C165.01,79.071 162.616,77.341 159.989,75.722 C154.733,72.485 148.635,69.704 143.881,68.884 C142.162,68.588 140.473,68.447 138.846,68.472 z M139.428,72.149 C140.654,72.159 141.938,72.274 143.256,72.501 C147.104,73.165 153.11,75.796 158.063,78.848 C160.539,80.373 162.774,82.006 164.39,83.492 C166.006,84.978 166.905,86.417 166.999,86.877 C167.415,88.907 166.955,89.867 166.171,90.663 C165.412,91.434 164.126,91.97 162.844,92.207 L161.658,92.179 C161.201,89.085 158.533,86.716 155.317,86.716 C152.203,86.716 149.609,88.937 149.031,91.882 L142.452,91.726 C141.814,88.857 139.256,86.716 136.199,86.716 C133.244,86.716 130.758,88.714 130.017,91.434 L129.481,91.42 C128.025,88.701 126.907,84.423 127.959,78.943 C128.465,76.309 130.136,74.496 132.833,73.332 C134.519,72.604 136.602,72.19 138.906,72.152 C139.079,72.149 139.253,72.147 139.428,72.149 z" fill-opacity="0" stroke="#FFFFFF" stroke-width="1"/>
      </g>
    </g>
    <g id="train_2-1">
      <path d="M130.951,263.5 L162.716,263.5 C170.513,263.5 176.833,269.821 176.833,277.618 L176.833,309.382 C176.833,317.179 170.513,323.5 162.716,323.5 L130.951,323.5 C123.154,323.5 116.833,317.179 116.833,309.382 L116.833,277.618 C116.833,269.821 123.154,263.5 130.951,263.5 z" fill="url(#Gradient_7)" id="background_2-1"/>
      <path d="M137.435,270.455 C136.228,270.455 135.259,270.946 135.259,271.549 L135.259,271.758 L129.984,271.758 C128.778,271.758 127.808,272.727 127.808,273.934 L127.808,308.763 C127.808,309.97 128.778,310.939 129.984,310.939 L135.037,310.939 L128.067,316.545 L136.746,316.545 L140.102,310.939 L153.552,310.939 L156.908,316.545 L165.6,316.545 L158.629,310.939 L163.67,310.939 C164.877,310.939 165.858,309.97 165.858,308.763 L165.858,273.934 C165.858,272.727 164.877,271.758 163.67,271.758 L158.396,271.758 L158.396,271.549 C158.396,270.946 157.427,270.455 156.22,270.455 L137.435,270.455 z M133.083,276.909 L160.572,276.909 C160.87,276.909 161.113,277.152 161.113,277.45 L161.113,289.646 C161.113,289.944 160.87,290.187 160.572,290.187 L133.083,290.187 C132.785,290.187 132.542,289.944 132.542,289.646 L132.542,277.45 C132.542,277.152 132.785,276.909 133.083,276.909 z M137.201,296.506 C139.324,296.506 141.045,298.218 141.061,300.342 L141.061,300.366 C141.061,302.501 139.336,304.239 137.201,304.239 C135.066,304.239 133.328,302.501 133.328,300.366 C133.328,298.231 135.066,296.506 137.201,296.506 z M156.453,296.506 C158.577,296.506 160.309,298.218 160.326,300.342 L160.326,300.366 C160.326,302.501 158.589,304.239 156.453,304.239 C154.318,304.239 152.593,302.501 152.593,300.366 C152.593,298.231 154.318,296.506 156.453,296.506 z" fill="#FFFFFF" id="icon_2-1"/>
    </g>
    <g id="plug_3-4">
      <path d="M200.951,53.5 L232.716,53.5 C240.513,53.5 246.833,59.821 246.833,67.618 L246.833,99.382 C246.833,107.179 240.513,113.5 232.716,113.5 L200.951,113.5 C193.154,113.5 186.833,107.179 186.833,99.382 L186.833,67.618 C186.833,59.821 193.154,53.5 200.951,53.5 z" fill="url(#Gradient_8)" id="background_3-4"/>
      <path d="M233.269,60.009 C232.012,58.752 230.675,60.091 228.669,62.097 L222.217,68.549 L219.784,66.115 C212.249,73.651 204.713,81.186 207.225,88.721 L208.402,89.898 C207.448,90.742 206.664,91.827 205.906,92.959 C204.525,95.025 203.348,97.408 202.484,99.333 C201.972,100.473 200.787,102.153 199.423,102.959 C198.059,103.765 196.687,104.067 194.352,102.567 L192.202,105.911 C195.562,108.07 199.053,107.782 201.448,106.366 C203.844,104.95 205.327,102.746 206.126,100.966 C206.937,99.159 208.033,96.937 209.203,95.189 C209.949,94.074 210.754,93.289 211.322,92.818 L212.249,93.744 C219.784,96.256 227.319,88.721 234.854,81.186 L232.437,78.768 L238.889,72.316 C240.894,70.31 242.234,68.974 240.977,67.717 C239.72,66.46 238.383,67.799 236.377,69.804 L229.925,76.256 L224.729,71.06 L231.181,64.608 C233.187,62.603 234.526,61.266 233.269,60.009 z" fill="#FFFFFF" id="icon_3-4"/>
    </g>
    <g id="plug_6-1">
      <path d="M409.951,263.5 L441.716,263.5 C449.513,263.5 455.833,269.821 455.833,277.618 L455.833,309.382 C455.833,317.179 449.513,323.5 441.716,323.5 L409.951,323.5 C402.154,323.5 395.833,317.179 395.833,309.382 L395.833,277.618 C395.833,269.821 402.154,263.5 409.951,263.5 z" fill="url(#Gradient_9)" id="background_6-1"/>
      <path d="M442.269,270.009 C441.012,268.752 439.675,270.091 437.669,272.097 L431.217,278.549 L428.784,276.115 C421.249,283.651 413.713,291.186 416.225,298.721 L417.402,299.898 C416.448,300.742 415.664,301.827 414.906,302.96 C413.525,305.026 412.348,307.408 411.484,309.333 C410.973,310.473 409.787,312.153 408.423,312.959 C407.06,313.765 405.687,314.067 403.352,312.567 L401.202,315.911 C404.562,318.07 408.053,317.782 410.448,316.366 C412.844,314.95 414.327,312.746 415.126,310.966 C415.937,309.159 417.033,306.937 418.203,305.189 C418.949,304.074 419.755,303.289 420.322,302.818 L421.249,303.744 C428.784,306.256 436.319,298.721 443.854,291.186 L441.437,288.768 L447.889,282.316 C449.894,280.31 451.234,278.974 449.977,277.717 C448.72,276.46 447.383,277.799 445.377,279.804 L438.925,286.256 L433.729,281.06 L440.181,274.608 C442.187,272.603 443.526,271.266 442.269,270.009 z" fill="#FFFFFF" id="icon_6-1"/>
    </g>
    <g id="plug_3-1">
      <path d="M200.951,263.5 L232.716,263.5 C240.513,263.5 246.833,269.821 246.833,277.618 L246.833,309.382 C246.833,317.179 240.513,323.5 232.716,323.5 L200.951,323.5 C193.154,323.5 186.833,317.179 186.833,309.382 L186.833,277.618 C186.833,269.821 193.154,263.5 200.951,263.5 z" fill="url(#Gradient_10)" id="background_3-1"/>
      <path d="M233.269,270.009 C232.012,268.752 230.675,270.091 228.669,272.096 L222.217,278.549 L219.784,276.115 C212.249,283.651 204.713,291.186 207.225,298.721 L208.402,299.898 C207.448,300.742 206.664,301.827 205.906,302.959 C204.525,305.025 203.348,307.408 202.484,309.333 C201.972,310.473 200.787,312.153 199.423,312.959 C198.059,313.765 196.687,314.067 194.352,312.567 L192.202,315.911 C195.562,318.07 199.053,317.782 201.448,316.366 C203.844,314.95 205.327,312.746 206.126,310.966 C206.937,309.159 208.033,306.937 209.203,305.189 C209.949,304.074 210.754,303.289 211.322,302.818 L212.249,303.744 C219.784,306.256 227.319,298.721 234.854,291.186 L232.437,288.768 L238.889,282.316 C240.894,280.31 242.234,278.974 240.977,277.717 C239.72,276.46 238.383,277.799 236.377,279.804 L229.925,286.256 L224.729,281.06 L231.181,274.608 C233.187,272.603 234.526,271.266 233.269,270.009 z" fill="#FFFFFF" id="icon_3-1"/>
    </g>
    <g id="satellite_5-1">
      <path d="M341.951,263.5 L373.716,263.5 C381.513,263.5 387.833,269.821 387.833,277.618 L387.833,309.382 C387.833,317.179 381.513,323.5 373.716,323.5 L341.951,323.5 C334.154,323.5 327.833,317.179 327.833,309.382 L327.833,277.618 C327.833,269.821 334.154,263.5 341.951,263.5 z" fill="url(#Gradient_11)" id="Icon_background_5-1"/>
      <path d="M342.851,310.103 C343.018,310.27 343.289,310.268 343.451,310.096 L345.548,307.888 L352.229,314.569 C353.739,312.246 352.507,307.953 349.272,304.152 C349.28,304.145 349.29,304.146 349.297,304.139 L350.967,302.469 L354.239,305.741 C354.788,306.29 355.671,306.29 356.219,305.741 L359.287,302.673 L360.499,303.886 L357.227,307.158 L366.605,316.536 L380.87,302.271 L371.492,292.893 L369.246,295.139 L368.034,293.926 L370.075,291.885 C370.624,291.337 370.624,290.454 370.075,289.906 L368.071,287.901 L368.986,286.986 L370.131,288.13 C370.403,288.402 370.836,288.402 371.108,288.13 L377.981,281.258 C378.253,280.986 378.259,280.546 377.987,280.274 L376.75,279.037 C377.197,277.656 376.929,276.16 375.921,275.152 C374.913,274.144 373.424,273.882 372.042,274.33 L370.799,273.086 C370.527,272.814 370.087,272.821 369.815,273.093 L362.943,279.966 C362.671,280.238 362.671,280.671 362.943,280.943 L364.087,282.088 L363.172,283.003 L361.167,280.999 C360.619,280.451 359.736,280.451 359.188,280.999 L357.147,283.04 L356.194,282.088 L358.44,279.842 L349.062,270.464 L334.797,284.729 L344.175,294.107 L347.447,290.834 L348.4,291.787 L345.332,294.855 C344.783,295.403 344.783,296.286 345.332,296.835 L348.604,300.107 L346.934,301.777 C346.927,301.784 346.928,301.794 346.921,301.802 C343.12,298.567 338.827,297.335 336.504,298.845 L343.185,305.526 L341.088,307.734 C340.926,307.904 340.928,308.18 341.094,308.346 L342.851,310.103 z M362.225,302.161 L361.013,300.948 L366.432,295.529 L367.644,296.742 L362.225,302.161 z M350.126,290.061 L349.173,289.108 L354.592,283.69 L355.545,284.642 L350.126,290.061 z" fill="#FFFFFF" id="icon_5-1"/>
    </g>
    <g id="satellite_5-4">
      <path d="M340.951,53.5 L372.716,53.5 C380.513,53.5 386.833,59.821 386.833,67.618 L386.833,99.382 C386.833,107.179 380.513,113.5 372.716,113.5 L340.951,113.5 C333.154,113.5 326.833,107.179 326.833,99.382 L326.833,67.618 C326.833,59.821 333.154,53.5 340.951,53.5 z" fill="url(#Gradient_12)" id="background_5-4"/>
      <path d="M341.851,100.103 C342.018,100.27 342.289,100.268 342.451,100.096 L344.548,97.888 L351.229,104.569 C352.739,102.246 351.507,97.953 348.272,94.152 C348.28,94.145 348.29,94.146 348.297,94.139 L349.967,92.469 L353.24,95.741 C353.788,96.29 354.671,96.29 355.219,95.741 L358.287,92.673 L359.5,93.886 L356.227,97.158 L365.605,106.536 L379.87,92.271 L370.492,82.893 L368.246,85.139 L367.034,83.926 L369.075,81.885 C369.624,81.337 369.624,80.454 369.075,79.906 L367.071,77.901 L367.987,76.986 L369.131,78.13 C369.403,78.402 369.836,78.402 370.108,78.13 L376.981,71.258 C377.253,70.986 377.259,70.546 376.987,70.274 L375.75,69.037 C376.197,67.656 375.929,66.16 374.921,65.152 C373.913,64.144 372.424,63.882 371.042,64.33 L369.799,63.086 C369.527,62.814 369.087,62.821 368.815,63.093 L361.943,69.966 C361.671,70.238 361.671,70.671 361.943,70.943 L363.087,72.088 L362.172,73.003 L360.167,70.999 C359.619,70.45 358.736,70.45 358.188,70.999 L356.147,73.04 L355.194,72.088 L357.44,69.842 L348.062,60.464 L333.797,74.729 L343.175,84.107 L346.447,80.834 L347.4,81.787 L344.332,84.855 C343.783,85.403 343.783,86.286 344.332,86.835 L347.604,90.107 L345.934,91.777 C345.927,91.784 345.928,91.794 345.921,91.802 C342.12,88.567 337.827,87.335 335.504,88.845 L342.185,95.526 L340.088,97.734 C339.926,97.904 339.928,98.18 340.094,98.346 L341.851,100.103 z M361.225,92.161 L360.013,90.948 L365.432,85.529 L366.644,86.742 L361.225,92.161 z M349.126,80.061 L348.173,79.108 L353.592,73.69 L354.545,74.642 L349.126,80.061 z" fill="#FFFFFF" id="icon_5-4"/>
    </g>
  </g>
  <g id="Papyrus-RT_Logo">
    <g id="Papyrus_Logo">
      <path d="M122.629,253.332 C122.563,229.355 132.558,206.481 145.718,186.848 C149.454,180.468 155.798,175.505 157.377,168.008 C158.984,162.242 153.834,159.681 147.893,159.263 C140.197,158.371 130.805,155.907 127.662,147.961 C125.287,139.846 130.625,131.291 137.354,127.021 C144.849,122.238 153.818,120.41 162.58,119.85 C164.444,119.743 164.798,119.643 169.154,119.91 C177.517,120.259 185.379,125.977 187.564,134.175 C190.752,145.266 188.542,157.263 184.361,167.794 C179.232,180.185 171.493,191.31 162.825,201.466 C152.818,214.809 149.089,232.014 150.402,248.457 C140.997,251.235 127.266,253.445 122.629,253.332 z" fill="url(#Gradient_13)" id="path3031-7-5"/>
      <path d="M152.48,247.765 C150.904,229.292 156.18,209.82 169.043,196.121 C178.439,184.074 186.92,170.6 189.988,155.431 C191.812,145.593 192.048,134.015 185.048,126.044 C183.78,124.528 178.132,121.511 183.024,123.268 C188.05,124.67 190.747,127.716 193.376,131.363 C207.304,149.316 212.164,174.055 205.178,195.778 C197.601,220.469 176.613,239.615 152.48,247.765 z" fill="url(#Gradient_14)" id="path3029-6-0"/>
      <path d="M46.843,207.262 C47.545,184.744 59.216,162.691 78.002,150.075 C92.908,139.824 110.917,135.089 128.754,133.464 C125.691,138.284 123.791,144.837 126.607,150.291 C128.224,153.983 133.187,155.829 132.606,156.152 C106.963,156.174 80.492,165.233 62.725,184.249 C56.089,191.261 50.854,199.52 46.892,208.305 C46.835,207.96 46.849,207.61 46.843,207.262 z" fill="url(#Gradient_15)" id="path3045-1-9"/>
      <path d="M157.236,138.23 C155.786,138.069 154.624,137.696 153.797,137.129 C153.429,136.876 153.024,136.432 152.852,136.092 C152.709,135.81 152.693,135.728 152.693,135.271 C152.693,134.822 152.71,134.727 152.844,134.456 C153.633,132.848 156.61,131.781 159.515,132.065 C161.195,132.229 162.526,132.741 163.332,133.534 C163.87,134.063 164.023,134.396 164.023,135.03 C164.023,135.669 163.872,135.992 163.306,136.558 C162.249,137.616 160.239,138.277 158.144,138.255 C157.733,138.251 157.324,138.24 157.236,138.23 z" fill="#1F211C" id="path3027-4-0"/>
    </g>
    <g id="RT_Parts">
      <g id="Clock">
        <path d="M110.535,230.05 L114.045,234.445 L111.837,238.263 L106.897,236.774 C106.897,236.774 108.865,233.68 110.535,230.05" fill="#D3DD78"/>
        <path d="M111.035,230.55 L114.545,234.945 L112.337,238.763 L107.397,237.274 C107.397,237.274 109.365,234.18 111.035,230.55 z" fill-opacity="0" stroke="#D3DD78" stroke-width="0.49"/>
        <path d="M112.087,216.595 L117.325,218.645 L117.321,223.058 L112.299,224.236 C112.299,224.236 112.456,220.575 112.087,216.595" fill="#D3DD78"/>
        <path d="M112.587,217.095 L117.825,219.145 L117.821,223.558 L112.799,224.736 C112.799,224.736 112.956,221.075 112.587,217.095 z" fill-opacity="0" stroke="#D3DD78" stroke-width="0.49"/>
        <path d="M106.599,203.799 L112.16,202.956 L114.363,206.777 L110.605,210.312 C110.605,210.312 108.91,207.061 106.599,203.799" fill="#D3DD78"/>
        <path d="M107.099,204.299 L112.66,203.456 L114.863,207.277 L111.105,210.812 C111.105,210.812 109.41,207.561 107.099,204.299 z" fill-opacity="0" stroke="#D3DD78" stroke-width="0.49"/>
        <path d="M86.66,246.075 C100.848,246.075 112.349,234.572 112.349,220.386 C112.349,206.199 100.848,194.697 86.66,194.697 C72.472,194.697 60.971,206.199 60.971,220.386 C60.971,234.572 72.472,246.075 86.66,246.075" fill="#D3DD78"/>
        <path d="M112.849,220.886 C112.849,235.073 101.348,246.575 87.16,246.575 C72.973,246.575 61.471,235.073 61.471,220.886 C61.471,206.698 72.973,195.197 87.16,195.197 C101.348,195.197 112.849,206.698 112.849,220.886 z" fill-opacity="0" stroke="#D3DD78" stroke-width="0.49"/>
        <path d="M62.646,211.415 L59.135,207.021 L61.344,203.202 L66.284,204.692 C66.284,204.692 64.315,207.784 62.646,211.415" fill="#D3DD78"/>
        <path d="M63.146,211.915 L59.635,207.521 L61.844,203.702 L66.784,205.192 C66.784,205.192 64.815,208.284 63.146,211.915 z" fill-opacity="0" stroke="#D3DD78" stroke-width="0.49"/>
        <path d="M70.066,200.589 L69.223,195.029 L73.045,192.826 L76.579,196.584 C76.579,196.584 73.329,198.279 70.066,200.589" fill="#D3DD78"/>
        <path d="M70.566,201.089 L69.723,195.529 L73.545,193.326 L77.079,197.084 C77.079,197.084 73.829,198.779 70.566,201.089 z" fill-opacity="0" stroke="#D3DD78" stroke-width="0.49"/>
        <path d="M81.759,195.119 L83.809,189.881 L88.221,189.885 L89.4,194.906 C89.4,194.906 85.737,194.75 81.759,195.119" fill="#D3DD78"/>
        <path d="M82.259,195.619 L84.309,190.381 L88.721,190.385 L89.9,195.406 C89.9,195.406 86.237,195.25 82.259,195.619 z" fill-opacity="0" stroke="#D3DD78" stroke-width="0.49"/>
        <path d="M95.94,196.316 L100.335,192.805 L104.153,195.015 L102.664,199.954 C102.664,199.954 99.572,197.985 95.94,196.316" fill="#D3DD78"/>
        <path d="M96.44,196.816 L100.835,193.305 L104.653,195.515 L103.164,200.454 C103.164,200.454 100.072,198.485 96.44,196.816 z" fill-opacity="0" stroke="#D3DD78" stroke-width="0.49"/>
        <path d="M61.386,225.217 L56.148,223.167 L56.152,218.756 L61.174,217.578 C61.174,217.578 61.016,221.238 61.386,225.217" fill="#D3DD78"/>
        <path d="M61.886,225.717 L56.648,223.667 L56.652,219.256 L61.674,218.078 C61.674,218.078 61.516,221.738 61.886,225.717 z" fill-opacity="0" stroke="#D3DD78" stroke-width="0.49"/>
        <path d="M66.51,236.624 L60.949,237.468 L58.746,233.646 L62.505,230.112 C62.503,230.112 64.198,233.362 66.51,236.624" fill="#D3DD78"/>
        <path d="M67.01,237.124 L61.449,237.968 L59.246,234.146 L63.005,230.612 C63.003,230.612 64.698,233.862 67.01,237.124 z" fill-opacity="0" stroke="#D3DD78" stroke-width="0.49"/>
        <path d="M76.356,243.671 L71.962,247.18 L68.144,244.971 L69.633,240.031 C69.633,240.033 72.725,242.001 76.356,243.671" fill="#D3DD78"/>
        <path d="M76.856,244.171 L72.462,247.68 L68.644,245.471 L70.133,240.531 C70.133,240.533 73.225,242.501 76.856,244.171 z" fill-opacity="0" stroke="#D3DD78" stroke-width="0.49"/>
        <path d="M91.1,246.008 L89.05,251.244 L84.639,251.241 L83.459,246.221 C83.459,246.221 87.121,246.377 91.1,246.008" fill="#D3DD78"/>
        <path d="M91.6,246.508 L89.55,251.744 L85.139,251.741 L83.959,246.721 C83.959,246.721 87.621,246.877 91.6,246.508 z" fill-opacity="0" stroke="#D3DD78" stroke-width="0.49"/>
        <path d="M103.67,240.099 L104.513,245.66 L100.692,247.863 L97.158,244.104 C97.158,244.104 100.408,242.409 103.67,240.099" fill="#D3DD78"/>
        <path d="M104.17,240.599 L105.013,246.16 L101.192,248.363 L97.658,244.604 C97.658,244.604 100.908,242.909 104.17,240.599 z" fill-opacity="0" stroke="#D3DD78" stroke-width="0.49"/>
        <path d="M86.257,226.239 C88.486,226.239 90.291,224.434 90.291,222.205 C90.291,219.976 88.486,218.171 86.257,218.171 C84.028,218.171 82.223,219.976 82.223,222.205 C82.223,224.434 84.03,226.239 86.257,226.239" fill="#000000"/>
        <path d="M96.979,231.747 L51.982,195.09" fill-opacity="0" stroke="#000000" stroke-width="0.57"/>
        <path d="M102.397,236.067 L96.741,226.596 C96.741,226.596 96.479,231.246 91.976,232.444 L102.397,236.067" fill="#000000"/>
        <path d="M56.774,200.569 C57.723,200.569 58.491,199.801 58.491,198.852 C58.491,197.905 57.723,197.137 56.774,197.137 C55.825,197.137 55.057,197.905 55.057,198.852 C55.057,199.801 55.825,200.569 56.774,200.569" fill="#000000"/>
        <path d="M58.989,199.354 C58.989,200.301 58.221,201.069 57.274,201.069 C56.327,201.069 55.559,200.301 55.559,199.354 C55.559,198.406 56.327,197.638 57.274,197.638 C58.221,197.638 58.989,198.406 58.989,199.354 z" fill-opacity="0" stroke="#000000" stroke-width="0.605"/>
        <path d="M86.449,185.679 L86.449,222.608 L124.067,194.623" fill-opacity="0" stroke="#000000" stroke-width="1.139"/>
      </g>
      <g id="Small_black_gear">
        <path d="M107.616,171.115 L106.115,169.238 L107.06,167.606 L109.171,168.242 C109.171,168.24 108.328,169.563 107.616,171.115" fill="#000000"/>
        <path d="M108.116,171.615 L106.615,169.738 L107.56,168.106 L109.671,168.742 C109.671,168.74 108.828,170.063 108.116,171.615 z" fill-opacity="0" stroke="#000000" stroke-width="0.209"/>
        <path d="M128.086,179.079 L129.587,180.958 L128.642,182.59 L126.53,181.954 C126.53,181.956 127.372,180.631 128.086,179.079" fill="#000000"/>
        <path d="M128.586,179.579 L130.087,181.458 L129.142,183.09 L127.03,182.454 C127.03,182.456 127.872,181.131 128.586,179.579 z" fill-opacity="0" stroke="#000000" stroke-width="0.209"/>
        <path d="M110.786,166.487 L110.426,164.113 L112.06,163.169 L113.569,164.776 C113.569,164.776 112.18,165.5 110.786,166.487" fill="#000000"/>
        <path d="M111.286,166.987 L110.926,164.613 L112.56,163.669 L114.069,165.276 C114.069,165.276 112.68,166 111.286,166.987 z" fill-opacity="0" stroke="#000000" stroke-width="0.209"/>
        <path d="M115.784,164.148 L116.66,161.911 L118.547,161.913 L119.05,164.06 C119.05,164.058 117.486,163.99 115.784,164.148" fill="#000000"/>
        <path d="M116.284,164.648 L117.16,162.411 L119.047,162.413 L119.55,164.56 C119.55,164.558 117.986,164.49 116.284,164.648 z" fill-opacity="0" stroke="#000000" stroke-width="0.209"/>
        <path d="M121.847,164.662 L123.725,163.159 L125.357,164.106 L124.721,166.217 C124.721,166.217 123.399,165.376 121.847,164.662" fill="#000000"/>
        <path d="M122.347,165.162 L124.225,163.659 L125.857,164.606 L125.221,166.717 C125.221,166.717 123.899,165.876 122.347,165.162 z" fill-opacity="0" stroke="#000000" stroke-width="0.209"/>
        <path d="M128.749,173.328 L130.988,174.204 L130.986,176.091 L128.839,176.594 C128.839,176.594 128.907,175.03 128.749,173.328" fill="#000000"/>
        <path d="M129.249,173.828 L131.488,174.704 L131.486,176.591 L129.339,177.094 C129.339,177.094 129.407,175.53 129.249,173.828 z" fill-opacity="0" stroke="#000000" stroke-width="0.209"/>
        <path d="M107.077,177.014 L104.838,176.138 L104.84,174.251 L106.987,173.748 C106.985,173.75 106.917,175.312 107.077,177.014" fill="#000000"/>
        <path d="M107.577,177.514 L105.338,176.638 L105.34,174.751 L107.487,174.248 C107.485,174.25 107.417,175.812 107.577,177.514 z" fill-opacity="0" stroke="#000000" stroke-width="0.209"/>
        <path d="M109.267,181.891 L106.89,182.252 L105.948,180.618 L107.555,179.107 C107.555,179.107 108.279,180.495 109.267,181.891" fill="#000000"/>
        <path d="M109.767,182.391 L107.39,182.752 L106.448,181.118 L108.055,179.607 C108.055,179.607 108.779,180.995 109.767,182.391 z" fill-opacity="0" stroke="#000000" stroke-width="0.209"/>
        <path d="M113.476,184.902 L111.597,186.403 L109.965,185.458 L110.601,183.346 C110.601,183.346 111.924,184.188 113.476,184.902" fill="#000000"/>
        <path d="M113.976,185.402 L112.097,186.903 L110.465,185.958 L111.101,183.846 C111.101,183.846 112.424,184.688 113.976,185.402 z" fill-opacity="0" stroke="#000000" stroke-width="0.209"/>
        <path d="M119.778,185.901 L118.902,188.14 L117.015,188.139 L116.512,185.99 C116.512,185.992 118.076,186.06 119.778,185.901" fill="#000000"/>
        <path d="M120.278,186.401 L119.402,188.64 L117.515,188.639 L117.012,186.49 C117.012,186.492 118.576,186.56 120.278,186.401 z" fill-opacity="0" stroke="#000000" stroke-width="0.209"/>
        <path d="M126.403,167.861 L128.779,167.501 L129.721,169.134 L128.115,170.644 C128.115,170.642 127.39,169.253 126.403,167.861" fill="#000000"/>
        <path d="M126.903,168.361 L129.279,168.001 L130.221,169.634 L128.615,171.144 C128.615,171.142 127.89,169.753 126.903,168.361 z" fill-opacity="0" stroke="#000000" stroke-width="0.209"/>
        <path d="M125.15,183.377 L125.51,185.752 L123.876,186.694 L122.367,185.089 C122.369,185.087 123.757,184.365 125.15,183.377" fill="#000000"/>
        <path d="M125.65,183.877 L126.01,186.252 L124.376,187.194 L122.867,185.589 C122.869,185.587 124.257,184.865 125.65,183.877 z" fill-opacity="0" stroke="#000000" stroke-width="0.209"/>
        <path d="M128.358,175.702 C128.358,181.181 123.916,185.623 118.437,185.623 C112.957,185.623 108.515,181.181 108.515,175.702 C108.515,170.222 112.957,165.78 118.437,165.78 C123.916,165.78 128.358,170.222 128.358,175.702 z" fill-opacity="0" stroke="#000000" stroke-width="3.4"/>
        <path d="M123.62,175.894 C123.62,178.634 121.398,180.856 118.658,180.856 C115.917,180.856 113.695,178.634 113.695,175.894 C113.695,173.153 115.917,170.931 118.658,170.931 C121.398,170.931 123.62,173.153 123.62,175.894 z" fill-opacity="0" stroke="#000000" stroke-width="1.7"/>
      </g>
      <g id="Right_Gear">
        <path d="M203.482,252.942 C218.565,252.942 230.793,240.715 230.793,225.631 C230.793,210.549 218.565,198.323 203.482,198.323 C188.4,198.323 176.172,210.549 176.172,225.631 C176.172,240.715 188.398,252.942 203.482,252.942" fill="#D3DD78"/>
        <path d="M231.293,226.131 C231.293,241.215 219.065,253.442 203.982,253.442 C188.899,253.442 176.672,241.215 176.672,226.131 C176.672,211.048 188.899,198.821 203.982,198.821 C219.065,198.821 231.293,211.048 231.293,226.131 z" fill-opacity="0" stroke="#D3DD78" stroke-width="0.52"/>
        <path d="M177.95,216.094 L174.218,211.423 L176.566,207.361 L181.817,208.946 C181.817,208.946 179.725,212.234 177.95,216.094" fill="#D3DD78"/>
        <path d="M178.45,216.594 L174.718,211.923 L177.066,207.861 L182.317,209.446 C182.317,209.446 180.225,212.734 178.45,216.594 z" fill-opacity="0" stroke="#D3DD78" stroke-width="0.52"/>
        <path d="M228.863,235.906 L232.595,240.578 L230.247,244.637 L224.996,243.055 C224.994,243.055 227.087,239.767 228.863,235.906" fill="#D3DD78"/>
        <path d="M229.363,236.406 L233.095,241.078 L230.747,245.137 L225.496,243.555 C225.494,243.555 227.587,240.267 229.363,236.406 z" fill-opacity="0" stroke="#D3DD78" stroke-width="0.52"/>
        <path d="M185.84,204.587 L184.944,198.674 L189.007,196.332 L192.762,200.329 C192.762,200.329 189.308,202.132 185.84,204.587" fill="#D3DD78"/>
        <path d="M186.34,205.087 L185.444,199.174 L189.507,196.832 L193.262,200.829 C193.262,200.829 189.808,202.632 186.34,205.087 z" fill-opacity="0" stroke="#D3DD78" stroke-width="0.52"/>
        <path d="M198.27,198.77 L200.449,193.202 L205.14,193.206 L206.394,198.545 C206.394,198.544 202.501,198.379 198.27,198.77" fill="#D3DD78"/>
        <path d="M198.77,199.27 L200.949,193.702 L205.64,193.706 L206.894,199.045 C206.894,199.044 203.001,198.879 198.77,199.27 z" fill-opacity="0" stroke="#D3DD78" stroke-width="0.52"/>
        <path d="M213.347,200.043 L218.019,196.311 L222.078,198.659 L220.496,203.91 C220.496,203.91 217.208,201.818 213.347,200.043" fill="#D3DD78"/>
        <path d="M213.847,200.543 L218.519,196.811 L222.578,199.159 L220.996,204.41 C220.996,204.41 217.708,202.318 213.847,200.543 z" fill-opacity="0" stroke="#D3DD78" stroke-width="0.52"/>
        <path d="M230.512,221.602 L236.08,223.782 L236.076,228.472 L230.738,229.727 C230.74,229.727 230.905,225.834 230.512,221.602" fill="#D3DD78"/>
        <path d="M231.012,222.102 L236.58,224.282 L236.576,228.972 L231.238,230.227 C231.24,230.227 231.405,226.334 231.012,222.102 z" fill-opacity="0" stroke="#D3DD78" stroke-width="0.52"/>
        <path d="M176.61,230.769 L171.043,228.589 L171.046,223.899 L176.384,222.644 C176.386,222.644 176.218,226.537 176.61,230.769" fill="#D3DD78"/>
        <path d="M177.11,231.269 L171.543,229.089 L171.546,224.399 L176.884,223.144 C176.886,223.144 176.718,227.037 177.11,231.269 z" fill-opacity="0" stroke="#D3DD78" stroke-width="0.52"/>
        <path d="M182.059,242.895 L176.148,243.789 L173.805,239.726 L177.802,235.971 C177.802,235.972 179.604,239.427 182.059,242.895" fill="#D3DD78"/>
        <path d="M182.559,243.395 L176.648,244.289 L174.305,240.226 L178.302,236.471 C178.302,236.472 180.104,239.927 182.559,243.395 z" fill-opacity="0" stroke="#D3DD78" stroke-width="0.52"/>
        <path d="M192.527,250.385 L187.856,254.117 L183.796,251.769 L185.379,246.518 C185.379,246.519 188.667,248.61 192.527,250.385" fill="#D3DD78"/>
        <path d="M193.027,250.885 L188.356,254.617 L184.296,252.269 L185.879,247.018 C185.879,247.019 189.167,249.11 193.027,250.885 z" fill-opacity="0" stroke="#D3DD78" stroke-width="0.52"/>
        <path d="M208.201,252.87 L206.022,258.438 L201.332,258.435 L200.077,253.095 C200.077,253.097 203.97,253.265 208.201,252.87" fill="#D3DD78"/>
        <path d="M208.701,253.37 L206.522,258.938 L201.832,258.935 L200.577,253.595 C200.577,253.597 204.47,253.765 208.701,253.37 z" fill-opacity="0" stroke="#D3DD78" stroke-width="0.52"/>
        <path d="M224.679,207.999 L230.59,207.105 L232.933,211.168 L228.936,214.923 C228.936,214.921 227.134,211.467 224.679,207.999" fill="#D3DD78"/>
        <path d="M225.179,208.499 L231.09,207.605 L233.433,211.668 L229.436,215.423 C229.436,215.421 227.634,211.967 225.179,208.499 z" fill-opacity="0" stroke="#D3DD78" stroke-width="0.52"/>
        <path d="M221.565,246.589 L222.461,252.502 L218.398,254.844 L214.643,250.847 C214.643,250.847 218.097,249.044 221.565,246.589" fill="#D3DD78"/>
        <path d="M222.065,247.089 L222.961,253.002 L218.898,255.344 L215.143,251.347 C215.143,251.347 218.597,249.544 222.065,247.089 z" fill-opacity="0" stroke="#D3DD78" stroke-width="0.52"/>
        <path d="M221.759,226.213 C221.759,236.068 213.77,244.058 203.914,244.058 C194.059,244.058 186.069,236.068 186.069,226.213 C186.069,216.357 194.059,208.368 203.914,208.368 C213.77,208.368 221.759,216.357 221.759,226.213 z" fill-opacity="0" stroke="#FFFFFF" stroke-width="7.125"/>
        <path d="M203.331,234.312 C207.979,234.312 211.746,230.544 211.746,225.897 C211.746,221.25 207.979,217.483 203.331,217.483 C198.683,217.483 194.916,221.25 194.916,225.897 C194.914,230.544 198.683,234.312 203.331,234.312" fill="#FFFFFF"/>
      </g>
    </g>
  </g>
  <g id="PRTName">
    <g>
      <path d="M448.404,211.645 L448.404,214.806 L433.353,214.806 L433.353,218.634 L443.822,218.634 L443.822,221.795 L433.353,221.795 L433.353,226.319 L449.071,226.319 L449.071,229.48 L429.873,229.48 L429.873,211.645 L448.404,211.645 z M403.976,211.645 L411.255,221.737 L418.563,211.645 L423.783,211.645 L423.783,229.48 L420.303,229.48 L420.216,214.806 L411.255,226.957 L402.323,214.69 L402.236,214.806 L402.236,229.48 L398.756,229.48 L398.756,211.645 L403.976,211.645 z M392.666,211.645 L392.666,229.48 L389.186,229.48 L389.186,211.645 L392.666,211.645 z M385.561,208.484 L385.561,211.645 L375.527,211.645 L375.527,229.48 L372.047,229.48 L372.047,211.645 L362.013,211.645 L362.013,208.484 L385.561,208.484 z M331.534,211.645 L331.534,226.319 L345.309,226.319 L345.309,229.48 L328.054,229.48 L328.054,211.645 L331.534,211.645 z M314.917,211.645 L324.632,229.48 L320.804,229.48 L318.745,225.652 L306.768,225.652 L304.709,229.48 L300.881,229.48 L310.596,211.645 L314.917,211.645 z M312.771,214.603 L308.508,222.491 L317.005,222.491 L312.771,214.603 z M298.387,211.645 L298.387,214.806 L283.336,214.806 L283.336,218.634 L293.805,218.634 L293.805,221.795 L283.336,221.795 L283.336,226.319 L299.054,226.319 L299.054,229.48 L279.856,229.48 L279.856,211.645 L298.387,211.645 z M267.647,208.484 Q270.953,208.484 272.838,210.267 Q274.723,212.051 274.723,215.096 Q274.723,217.764 273.186,219.388 Q271.765,220.896 269.271,221.302 L274.897,229.48 L270.866,229.48 L265.182,221.476 L254.568,221.476 L254.568,229.48 L251.088,229.48 L251.088,208.484 L267.647,208.484 z M266.806,211.645 L254.568,211.645 L254.568,218.315 L267.125,218.315 Q271.156,218.315 271.156,215.096 Q271.156,211.645 266.806,211.645 z M359.693,218.634 L359.693,221.795 L347.774,221.795 L347.774,218.634 L359.693,218.634 z M347.252,179.536 Q351.892,179.536 355.198,181.943 Q358.968,184.698 358.968,189.019 Q358.968,193.398 355.227,196.153 Q352.037,198.502 347.252,198.502 Q342.467,198.502 339.248,196.153 Q335.507,193.427 335.507,189.019 Q335.507,184.669 339.277,181.943 Q342.583,179.536 347.252,179.536 z M347.252,182.697 Q343.656,182.697 341.38,184.495 Q339.103,186.293 339.103,189.019 Q339.103,191.861 341.336,193.615 Q343.569,195.37 347.252,195.37 Q350.906,195.37 353.125,193.615 Q355.343,191.861 355.343,189.019 Q355.343,186.264 353.081,184.48 Q350.819,182.697 347.252,182.697 z M378.398,180.145 Q381.24,180.145 382.922,181.682 Q384.604,183.219 384.604,185.8 Q384.604,190.237 380.167,191.223 L384.981,197.98 L380.979,197.98 L376.31,191.426 L367.465,191.426 L367.465,197.98 L363.985,197.98 L363.985,180.145 L378.398,180.145 z M377.673,183.306 L367.465,183.306 L367.465,188.265 L377.876,188.265 Q381.037,188.265 381.037,185.858 Q381.037,183.306 377.673,183.306 z M332.81,180.145 L332.81,183.306 L317.759,183.306 L317.759,187.134 L328.228,187.134 L328.228,190.295 L317.759,190.295 L317.759,197.98 L314.279,197.98 L314.279,180.145 L332.81,180.145 z M393.522,148.645 L393.522,159.926 Q393.522,163.87 400.424,163.87 Q407.297,163.87 407.297,159.926 L407.297,148.645 L410.777,148.645 L410.777,160.622 Q410.777,163.435 407.964,165.218 Q405.151,167.002 400.424,167.002 Q395.668,167.002 392.855,165.218 Q390.042,163.435 390.042,160.622 L390.042,148.645 L393.522,148.645 z M425.19,148.181 Q431.222,148.181 434.963,150.791 L432.817,153.053 Q429.337,151.226 425.248,151.226 Q419.303,151.226 419.303,153.343 Q419.303,154.59 421.536,154.967 Q424.581,155.228 427.626,155.518 Q432.005,155.953 433.861,157.084 Q435.92,158.331 435.92,160.883 Q435.92,163.754 433.353,165.32 Q430.787,166.886 425.915,166.886 Q419.042,166.886 414.924,163.754 L416.809,161.289 Q420.492,163.87 425.857,163.87 Q428.873,163.87 430.526,163.101 Q432.179,162.333 432.179,161.057 Q432.179,159.636 430.149,159.056 Q429.018,158.737 426.64,158.621 Q422.928,158.447 422.087,158.36 Q418.781,158.041 417.215,156.939 Q415.649,155.837 415.649,153.72 Q415.649,151.168 418.157,149.674 Q420.666,148.181 425.19,148.181 z M378.732,148.645 Q381.574,148.645 383.256,150.182 Q384.938,151.719 384.938,154.3 Q384.938,158.737 380.501,159.723 L385.315,166.48 L381.313,166.48 L376.644,159.926 L367.799,159.926 L367.799,166.48 L364.319,166.48 L364.319,148.645 L378.732,148.645 z M378.007,151.806 L367.799,151.806 L367.799,156.765 L378.21,156.765 Q381.371,156.765 381.371,154.358 Q381.371,151.806 378.007,151.806 z M341.641,148.645 L349.268,156.765 L356.895,148.645 L361.129,148.645 L350.979,159.462 L350.979,166.48 L347.499,166.48 L347.499,159.462 L337.407,148.645 L341.641,148.645 z M330.476,148.645 Q333.318,148.645 335,150.182 Q336.682,151.719 336.682,154.3 Q336.682,156.997 334.927,158.461 Q333.173,159.926 329.896,159.926 L319.543,159.926 L319.543,166.48 L316.063,166.48 L316.063,148.645 L330.476,148.645 z M329.751,151.806 L319.543,151.806 L319.543,156.765 L329.954,156.765 Q333.115,156.765 333.115,154.358 Q333.115,151.806 329.751,151.806 z M302.926,148.645 L312.641,166.48 L308.813,166.48 L306.754,162.652 L294.777,162.652 L292.718,166.48 L288.89,166.48 L298.605,148.645 L302.926,148.645 z M300.78,151.603 L296.517,159.491 L305.014,159.491 L300.78,151.603 z M281.031,145.484 Q284.25,145.484 286.135,147.267 Q288.02,149.051 288.02,152.038 Q288.02,155.17 286.062,156.823 Q284.105,158.476 280.364,158.476 L267.865,158.476 L267.865,166.48 L264.385,166.48 L264.385,145.484 L281.031,145.484 z M280.19,148.645 L267.865,148.645 L267.865,155.315 L280.422,155.315 Q284.453,155.315 284.453,152.096 Q284.453,148.645 280.19,148.645 z" clip-path="url(#Clip_1)" filter="url(#Shadow_2)" fill="rgba(0,0,0,0.75)"/>
      <text transform="matrix(1, 0, 0, 1, 349.05, 186.5)">
        <tspan x="-88.174" y="-20.02" font-family="BlairMdITCTT-Medium" font-size="29" fill="#000000">Papyrus</tspan>
        <tspan x="-37.816" y="11.48" font-family="BlairMdITCTT-Medium" font-size="29" fill="#000000">for</tspan>
        <tspan x="-101.471" y="42.98" font-family="BlairMdITCTT-Medium" font-size="29" fill="#000000">Real-Time</tspan>
      </text>
    </g>
  </g>
  <g id="Progress_Rectangle" display="none">
    <path d="M47.5,343 L456.5,343 L456.5,368 L47.5,368 L47.5,343 z" fill="#FFFFFF" display="none"/>
  </g>
  <g id="Release_Info">
    <g>
      <path d="M449.805,239.424 Q451.497,239.604 452.361,241.02 Q453.417,242.736 453.417,245.052 Q453.417,247.392 452.373,249.072 Q451.521,250.44 449.805,250.632 L449.805,249.96 L449.817,249.96 Q450.777,249.96 451.377,248.676 Q451.989,247.344 451.989,245.052 Q451.989,242.784 451.353,241.404 Q450.753,240.096 449.829,240.096 L449.805,240.096 L449.805,239.424 z M383.277,239.424 L383.277,240.096 L383.253,240.096 Q382.329,240.096 381.729,241.404 Q381.093,242.772 381.093,245.052 Q381.093,247.356 381.693,248.658 Q382.293,249.96 383.265,249.96 L383.277,249.96 L383.277,250.632 Q381.573,250.452 380.709,249.06 Q379.665,247.392 379.665,245.052 Q379.665,242.7 380.709,241.02 Q381.585,239.604 383.277,239.424 z M390.573,239.976 Q392.841,239.976 394.377,241.152 Q396.141,242.496 396.141,244.584 Q396.141,246.72 394.389,248.04 Q392.853,249.192 390.573,249.192 Q388.269,249.192 386.733,248.028 Q384.981,246.708 384.981,244.584 Q384.981,242.496 386.757,241.152 Q388.317,239.976 390.573,239.976 z M390.573,241.296 Q388.761,241.296 387.621,242.226 Q386.481,243.156 386.481,244.584 Q386.481,246.06 387.597,246.966 Q388.713,247.872 390.573,247.872 Q392.421,247.872 393.531,246.96 Q394.641,246.048 394.641,244.584 Q394.641,243.06 393.345,242.112 Q392.229,241.296 390.573,241.296 z M422.637,241.308 Q425.085,241.308 426.693,243.024 L425.337,243.696 Q424.209,242.616 422.553,242.616 Q421.089,242.616 420.141,243.36 Q419.193,244.104 419.193,245.232 Q419.193,246.396 420.117,247.128 Q421.041,247.86 422.553,247.86 Q424.821,247.86 425.565,246.204 L422.241,246.204 L422.241,244.896 L427.365,244.896 L427.365,245.124 Q427.365,246.924 426.051,248.04 Q424.737,249.156 422.553,249.156 Q420.585,249.156 419.253,248.184 Q417.705,247.056 417.705,245.232 Q417.705,243.432 419.253,242.304 Q420.609,241.308 422.637,241.308 z M369.609,240.156 Q371.505,240.156 372.813,241.44 Q374.169,242.772 374.169,244.596 Q374.169,246.444 372.825,247.752 Q371.481,249.06 369.609,249.06 Q367.725,249.06 366.405,247.764 Q365.049,246.432 365.049,244.596 Q365.049,242.772 366.417,241.44 Q367.737,240.156 369.609,240.156 z M369.609,241.44 Q368.241,241.44 367.371,242.322 Q366.501,243.204 366.501,244.596 Q366.501,245.976 367.377,246.864 Q368.253,247.752 369.609,247.752 Q370.965,247.752 371.841,246.864 Q372.717,245.976 372.717,244.596 Q372.717,243.204 371.847,242.322 Q370.977,241.44 369.609,241.44 z M441.393,241.56 L446.409,247.716 L446.409,241.56 L447.849,241.56 L447.849,248.94 L445.701,248.94 L440.685,242.784 L440.685,248.94 L439.245,248.94 L439.245,241.56 L441.393,241.56 z M437.109,241.56 L437.109,242.868 L430.881,242.868 L430.881,244.452 L435.213,244.452 L435.213,245.76 L430.881,245.76 L430.881,247.632 L437.385,247.632 L437.385,248.94 L429.441,248.94 L429.441,241.56 L437.109,241.56 z M408.765,241.56 L411.921,244.92 L415.077,241.56 L416.829,241.56 L412.629,246.036 L412.629,248.94 L411.189,248.94 L411.189,246.036 L407.013,241.56 L408.765,241.56 z M399.237,241.56 L402.045,244.344 L404.853,241.56 L406.665,241.56 L402.957,245.196 L406.797,248.94 L404.985,248.94 L402.045,246.048 L399.105,248.94 L397.293,248.94 L401.133,245.196 L397.425,241.56 L399.237,241.56 z M362.817,247.632 L362.817,248.94 L360.957,248.94 L360.957,247.632 L362.817,247.632 z M358.329,240.252 L358.329,248.94 L356.889,248.94 L356.889,241.692 L355.497,242.292 L355.497,241.044 Q356.289,240.792 356.901,240.252 L358.329,240.252 z M346.881,241.56 L350.193,247.692 L353.505,241.56 L355.101,241.56 L351.021,248.94 L349.365,248.94 L345.285,241.56 L346.881,241.56 z" clip-path="url(#Clip_3)" filter="url(#Shadow_4)" fill="rgba(0,0,0,0.75)"/>
      <text transform="matrix(1, 0, 0, 1, 399.783, 245.75)">
        <tspan x="-54.558" y="3.19" font-family="BlairMdITCTT-Medium" font-size="12" fill="#000000">v1.0 (Oxygen)</tspan>
      </text>
    </g>
  </g>
</svg>
