<?xml version="1.0" encoding="UTF-8"?>
<!DOCTYPE svg PUBLIC "-//W3C//DTD SVG 1.1//EN" "http://www.w3.org/Graphics/SVG/1.1/DTD/svg11.dtd">
<svg version="1.1" xmlns="http://www.w3.org/2000/svg" xmlns:xlink="http://www.w3.org/1999/xlink" x="0" y="0" width="1296" height="202.176" viewBox="0, 0, 1296, 202.176">
  <defs>
    <linearGradient id="Gradient_1" gradientUnits="userSpaceOnUse" x1="111.706" y1="123.588" x2="101.466" y2="43.281" gradientTransform="matrix(2.266, 0, 0, 2.266, 79.96, -167.66)">
      <stop offset="0" stop-color="#98BF0C"/>
      <stop offset="1" stop-color="#FFFFFF"/>
    </linearGradient>
    <linearGradient id="Gradient_2" gradientUnits="userSpaceOnUse" x1="124.689" y1="129.561" x2="124.122" y2="73.792" gradientTransform="matrix(2.266, 0, 0, 2.266, 79.96, -167.66)">
      <stop offset="0" stop-color="#009BBA"/>
      <stop offset="1" stop-color="#FFFFFF"/>
    </linearGradient>
    <linearGradient id="Gradient_3" gradientUnits="userSpaceOnUse" x1="82.579" y1="108.932" x2="84.811" y2="81.42" gradientTransform="matrix(2.266, 0, 0, 2.266, 79.96, -167.66)">
      <stop offset="0" stop-color="#1F211C"/>
      <stop offset="1" stop-color="#FFFFFF"/>
    </linearGradient>
    <linearGradient id="Gradient_4" gradientUnits="userSpaceOnUse" x1="-137.564" y1="9.358" x2="-143.331" y2="-10.009" gradientTransform="matrix(1.18, 0, 0, 1.18, 496.781, 42.697)">
      <stop offset="0" stop-color="#1F211C"/>
      <stop offset="1" stop-color="#FFFFFF"/>
    </linearGradient>
  </defs>
  <g id="Layer_4" display="none">
    <path d="M204,202.708 L431,202.708 L431,-0.532 L204,-0.532 L204,202.708 z" fill="#0099BA" id="path3045"/>
  </g>
  <g id="Layer_3" display="none">
    <path d="M212,202.885 L426,202.885 L426,-0 L212,-0 L212,202.885 z" fill="#0099BA" id="path3045"/>
    <path d="M0,202.885 L1296,202.885 L1296,-0.354 L0,-0.354 L0,202.885 z" fill="#0099BA" id="path3045"/>
  </g>
  <g id="Layer_2" display="none">
    <path d="M211,202.885 L1184,202.885 L1184,0 L211,0 L211,202.885 z" fill="#0099BA" id="path3045"/>
    <text transform="matrix(1, 0, 0, 1, 805.584, 149.705)">
      <tspan x="-369.741" y="13" font-family="ArialMT" font-size="40.174" fill="#FFFFFF">Eclipse Real Time System Development</tspan>
    </text>
    <text transform="matrix(1, 0, 0, 1, 674.401, 70.977)">
      <tspan x="-236.139" y="34.272" font-family="Arial-BoldMT" font-size="99.125" fill="#FFFFFF">PAPYRUS</tspan>
    </text>
    <text transform="matrix(1, 0, 0, 1, 1010.769, 70.711)">
      <tspan x="-66.281" y="34.272" font-family="Arial-BoldMT" font-size="99.125" fill="#FFFFFF">RT</tspan>
    </text>
    <path d="M426.857,119.934 L1161.5,124.74" fill-opacity="0" stroke="#37C2DC" stroke-width="3.164" id="path4973"/>
  </g>
  <g id="Layer_1">
    <g id="g5430">
      <g id="g5213">
        <path d="M302.016,163.714 C301.954,141.233 311.326,119.787 323.666,101.379 C327.169,95.397 333.118,90.744 334.598,83.715 C336.105,78.309 331.276,75.907 325.705,75.516 C318.489,74.679 309.683,72.369 306.735,64.919 C304.508,57.31 309.513,49.289 315.823,45.286 C322.851,40.801 331.261,39.087 339.477,38.562 C341.225,38.462 341.557,38.368 345.641,38.618 C353.483,38.946 360.855,44.307 362.904,51.993 C365.893,62.392 363.821,73.641 359.9,83.514 C355.091,95.132 347.834,105.562 339.706,115.085 C330.323,127.595 326.826,143.726 328.057,159.144 C319.239,161.748 306.364,163.82 302.016,163.714 z" fill="#FFFFFF" fill-opacity="0.679" id="path5215"/>
        <path d="M330.006,158.494 C328.528,141.175 333.475,122.918 345.537,110.074 C354.348,98.778 362.3,86.145 365.176,71.923 C366.887,62.699 367.109,51.844 360.544,44.37 C359.355,42.948 354.06,40.119 358.647,41.767 C363.36,43.081 365.889,45.937 368.353,49.357 C381.414,66.189 385.971,89.384 379.421,109.752 C372.316,132.902 352.635,150.853 330.006,158.494 z" fill="#FFFFFF" fill-opacity="0.679" id="path5217"/>
        <path d="M230.953,120.519 C231.611,99.406 242.554,78.729 260.17,66.901 C274.147,57.29 291.034,52.85 307.759,51.327 C304.887,55.846 303.106,61.99 305.746,67.103 C307.262,70.565 311.915,72.296 311.371,72.598 C287.326,72.619 262.505,81.113 245.845,98.942 C239.623,105.517 234.714,113.261 230.999,121.497 C230.945,121.174 230.959,120.845 230.953,120.519 z" fill="#FFFFFF" fill-opacity="0.679" id="path5219"/>
        <path d="M334.466,55.795 C333.106,55.644 332.017,55.295 331.242,54.763 C330.896,54.526 330.516,54.109 330.355,53.791 C330.221,53.526 330.206,53.449 330.206,53.021 C330.206,52.6 330.222,52.511 330.347,52.257 C331.088,50.749 333.879,49.748 336.603,50.015 C338.178,50.168 339.427,50.649 340.182,51.392 C340.686,51.888 340.83,52.2 340.83,52.795 C340.83,53.394 340.688,53.697 340.158,54.228 C339.166,55.219 337.282,55.839 335.318,55.819 C334.932,55.815 334.548,55.804 334.466,55.795 z" fill="#FFFFFF" fill-opacity="0.679" id="path5221"/>
      </g>
      <g id="g5372">
        <path d="M298.574,161.132 C298.511,138.651 307.883,117.205 320.223,98.797 C323.726,92.815 329.675,88.162 331.155,81.133 C332.663,75.727 327.834,73.325 322.263,72.934 C315.046,72.097 306.24,69.787 303.292,62.337 C301.066,54.728 306.071,46.707 312.381,42.704 C319.408,38.219 327.819,36.505 336.035,35.98 C337.782,35.88 338.114,35.786 342.199,36.036 C350.041,36.364 357.413,41.725 359.462,49.411 C362.451,59.81 360.379,71.059 356.458,80.932 C351.648,92.55 344.391,102.98 336.264,112.503 C326.881,125.013 323.384,141.144 324.615,156.562 C315.796,159.166 302.921,161.237 298.574,161.132 z" fill="url(#Gradient_1)" id="path5374"/>
        <path d="M326.564,155.912 C325.086,138.593 330.033,120.336 342.095,107.492 C350.905,96.196 358.857,83.563 361.734,69.341 C363.445,60.117 363.666,49.262 357.102,41.788 C355.913,40.366 350.618,37.537 355.205,39.185 C359.917,40.499 362.446,43.355 364.911,46.775 C377.971,63.607 382.529,86.802 375.978,107.17 C368.873,130.32 349.193,148.271 326.564,155.912 z" fill="url(#Gradient_2)" id="path5376"/>
        <path d="M227.511,117.936 C228.169,96.824 239.112,76.147 256.727,64.319 C270.704,54.708 287.592,50.268 304.317,48.745 C301.445,53.264 299.663,59.408 302.303,64.521 C303.82,67.983 308.473,69.714 307.929,70.016 C283.884,70.037 259.063,78.531 242.403,96.36 C236.18,102.935 231.272,110.679 227.557,118.915 C227.503,118.592 227.517,118.263 227.511,117.936 z" fill="url(#Gradient_3)" id="path5378"/>
        <path d="M331.023,53.213 C329.664,53.062 328.574,52.713 327.799,52.181 C327.454,51.944 327.074,51.527 326.912,51.209 C326.778,50.944 326.764,50.867 326.764,50.438 C326.764,50.018 326.78,49.929 326.905,49.675 C327.645,48.167 330.437,47.166 333.16,47.433 C334.736,47.586 335.984,48.067 336.739,48.81 C337.244,49.306 337.388,49.618 337.388,50.213 C337.388,50.812 337.246,51.115 336.715,51.646 C335.724,52.637 333.839,53.257 331.875,53.237 C331.489,53.233 331.106,53.222 331.023,53.213 z" fill="url(#Gradient_4)" id="path5380"/>
      </g>
    </g>
    <g>
      <path d="M371.53,165.775 C384.844,165.775 395.639,155.063 395.639,141.847 C395.639,128.631 384.844,117.92 371.53,117.92 C358.216,117.92 347.421,128.631 347.421,141.847 C347.421,155.063 358.216,165.775 371.53,165.775" fill="#D3DD7B"/>
      <path d="M372.03,166.275 C385.344,166.275 396.139,155.563 396.139,142.347 C396.139,129.131 385.344,118.42 372.03,118.42 C358.716,118.42 347.921,129.131 347.921,142.347 C347.921,155.563 358.716,166.275 372.03,166.275 z" fill-opacity="0" stroke="#D3DD7B" stroke-width="0.132"/>
      <path d="M348.992,133.492 L345.698,129.399 L347.77,125.841 L352.406,127.229 C352.406,127.229 350.559,130.109 348.992,133.492" fill="#D3DD7B"/>
      <path d="M349.492,133.992 L346.198,129.899 L348.27,126.341 L352.906,127.729 C352.906,127.729 351.059,130.609 349.492,133.992 z" fill-opacity="0" stroke="#D3DD7B" stroke-width="0.132"/>
      <path d="M393.936,150.848 L397.23,154.941 L395.158,158.498 L390.522,157.111 C390.522,157.111 392.369,154.231 393.936,150.848" fill="#D3DD7B"/>
      <path d="M394.436,151.348 L397.73,155.441 L395.658,158.998 L391.022,157.611 C391.022,157.611 392.869,154.731 394.436,151.348 z" fill-opacity="0" stroke="#D3DD7B" stroke-width="0.132"/>
      <path d="M355.956,123.409 L355.165,118.229 L358.751,116.178 L362.066,119.678 C362.066,119.678 359.017,121.258 355.956,123.409" fill="#D3DD7B"/>
      <path d="M356.456,123.909 L355.665,118.729 L359.251,116.678 L362.566,120.178 C362.566,120.178 359.517,121.758 356.456,123.909 z" fill-opacity="0" stroke="#D3DD7B" stroke-width="0.132"/>
      <path d="M366.929,118.313 L368.853,113.434 L372.993,113.437 L374.101,118.114 C374.101,118.114 370.664,117.97 366.929,118.313" fill="#D3DD7B"/>
      <path d="M367.429,118.813 L369.353,113.934 L373.493,113.937 L374.601,118.614 C374.601,118.614 371.164,118.47 367.429,118.813 z" fill-opacity="0" stroke="#D3DD7B" stroke-width="0.132"/>
      <path d="M380.239,119.428 L384.363,116.159 L387.947,118.216 L386.549,122.815 C386.549,122.815 383.647,120.983 380.239,119.428" fill="#D3DD7B"/>
      <path d="M380.739,119.928 L384.863,116.659 L388.447,118.716 L387.049,123.315 C387.049,123.315 384.147,121.483 380.739,119.928 z" fill-opacity="0" stroke="#D3DD7B" stroke-width="0.132"/>
      <path d="M395.393,138.316 L400.308,140.226 L400.305,144.335 L395.592,145.434 C395.592,145.434 395.739,142.024 395.393,138.316" fill="#D3DD7B"/>
      <path d="M395.893,138.816 L400.808,140.726 L400.805,144.835 L396.092,145.934 C396.092,145.934 396.239,142.524 395.893,138.816 z" fill-opacity="0" stroke="#D3DD7B" stroke-width="0.132"/>
      <path d="M347.809,146.348 L342.894,144.439 L342.897,140.329 L347.61,139.23 C347.61,139.23 347.463,142.641 347.809,146.348" fill="#D3DD7B"/>
      <path d="M348.309,146.848 L343.394,144.939 L343.397,140.829 L348.11,139.73 C348.11,139.73 347.963,143.141 348.309,146.848 z" fill-opacity="0" stroke="#D3DD7B" stroke-width="0.132"/>
      <path d="M352.618,156.972 L347.4,157.756 L345.333,154.197 L348.861,150.907 C348.861,150.907 350.451,153.934 352.618,156.972" fill="#D3DD7B"/>
      <path d="M353.118,157.472 L347.9,158.256 L345.833,154.697 L349.361,151.407 C349.361,151.407 350.951,154.434 353.118,157.472 z" fill-opacity="0" stroke="#D3DD7B" stroke-width="0.132"/>
      <path d="M361.859,163.535 L357.735,166.804 L354.152,164.747 L355.549,160.148 C355.549,160.148 358.451,161.98 361.859,163.535" fill="#D3DD7B"/>
      <path d="M362.359,164.035 L358.235,167.304 L354.652,165.247 L356.049,160.648 C356.049,160.648 358.951,162.48 362.359,164.035 z" fill-opacity="0" stroke="#D3DD7B" stroke-width="0.132"/>
      <path d="M375.697,165.712 L373.773,170.59 L369.633,170.587 L368.525,165.91 C368.525,165.91 371.962,166.056 375.697,165.712" fill="#D3DD7B"/>
      <path d="M376.197,166.212 L374.273,171.09 L370.133,171.087 L369.025,166.41 C369.025,166.41 372.462,166.556 376.197,166.212 z" fill-opacity="0" stroke="#D3DD7B" stroke-width="0.132"/>
      <path d="M390.243,126.398 L395.461,125.615 L397.529,129.173 L394.001,132.463 C394.001,132.463 392.41,129.437 390.243,126.398" fill="#D3DD7B"/>
      <path d="M390.743,126.898 L395.961,126.115 L398.029,129.673 L394.501,132.963 C394.501,132.963 392.91,129.937 390.743,126.898 z" fill-opacity="0" stroke="#D3DD7B" stroke-width="0.132"/>
      <path d="M387.494,160.209 L388.285,165.389 L384.698,167.439 L381.383,163.939 C381.383,163.939 384.433,162.359 387.494,160.209" fill="#D3DD7B"/>
      <path d="M387.994,160.709 L388.785,165.889 L385.198,167.939 L381.883,164.439 C381.883,164.439 384.933,162.859 387.994,160.709 z" fill-opacity="0" stroke="#D3DD7B" stroke-width="0.132"/>
      <path d="M371.97,158.053 C380.671,158.053 387.725,151.054 387.725,142.418 C387.725,133.782 380.671,126.784 371.97,126.784 C363.269,126.784 356.215,133.782 356.215,142.418 C356.215,151.054 363.269,158.053 371.97,158.053 z" fill-opacity="0" stroke="#FEFEFE" stroke-width="1.803"/>
      <path d="M371.397,149.452 C375.5,149.452 378.825,146.152 378.825,142.08 C378.825,138.007 375.5,134.709 371.397,134.709 C367.294,134.709 363.968,138.007 363.968,142.08 C363.968,146.152 367.294,149.452 371.397,149.452" fill="#FEFEFE"/>
    </g>
    <g>
      <path d="M282.314,98.249 L281.241,96.887 L281.917,95.703 L283.427,96.164 C283.427,96.164 282.825,97.123 282.314,98.249" fill="#2D2B2E"/>
      <path d="M282.814,98.749 L281.741,97.387 L282.417,96.203 L283.927,96.664 C283.927,96.664 283.325,97.623 282.814,98.749 z" fill-opacity="0" stroke="#2D2B2E" stroke-width="0.053"/>
      <path d="M296.955,104.03 L298.028,105.394 L297.352,106.578 L295.842,106.117 C295.842,106.117 296.444,105.157 296.955,104.03" fill="#2D2B2E"/>
      <path d="M297.455,104.53 L298.528,105.894 L297.852,107.078 L296.342,106.617 C296.342,106.617 296.944,105.657 297.455,104.53 z" fill-opacity="0" stroke="#2D2B2E" stroke-width="0.053"/>
      <path d="M284.583,94.892 L284.325,93.168 L285.493,92.483 L286.573,93.649 C286.573,93.649 285.58,94.175 284.583,94.892" fill="#2D2B2E"/>
      <path d="M285.083,95.392 L284.825,93.668 L285.993,92.983 L287.073,94.149 C287.073,94.149 286.08,94.675 285.083,95.392 z" fill-opacity="0" stroke="#2D2B2E" stroke-width="0.053"/>
      <path d="M288.157,93.194 L288.784,91.57 L290.133,91.572 L290.493,93.128 C290.493,93.128 289.374,93.079 288.157,93.194" fill="#2D2B2E"/>
      <path d="M288.657,93.694 L289.284,92.07 L290.633,92.072 L290.993,93.628 C290.993,93.628 289.874,93.579 288.657,93.694 z" fill-opacity="0" stroke="#2D2B2E" stroke-width="0.053"/>
      <path d="M292.493,93.566 L293.837,92.475 L295.004,93.162 L294.549,94.695 C294.549,94.695 293.603,94.084 292.493,93.566" fill="#2D2B2E"/>
      <path d="M292.993,94.066 L294.337,92.975 L295.504,93.662 L295.049,95.195 C295.049,95.195 294.103,94.584 292.993,94.066 z" fill-opacity="0" stroke="#2D2B2E" stroke-width="0.053"/>
      <path d="M297.429,99.857 L299.03,100.492 L299.029,101.862 L297.493,102.227 C297.493,102.227 297.542,101.092 297.429,99.857" fill="#2D2B2E"/>
      <path d="M297.929,100.357 L299.53,100.992 L299.529,102.362 L297.993,102.727 C297.993,102.727 298.042,101.592 297.929,100.357 z" fill-opacity="0" stroke="#2D2B2E" stroke-width="0.053"/>
      <path d="M281.929,102.532 L280.328,101.896 L280.329,100.527 L281.865,100.161 C281.865,100.161 281.816,101.297 281.929,102.532" fill="#2D2B2E"/>
      <path d="M282.429,103.032 L280.828,102.396 L280.829,101.027 L282.365,100.661 C282.365,100.661 282.316,101.797 282.429,103.032 z" fill-opacity="0" stroke="#2D2B2E" stroke-width="0.053"/>
      <path d="M283.496,106.07 L281.796,106.332 L281.122,105.146 L282.271,104.049 C282.271,104.049 282.789,105.059 283.496,106.07" fill="#2D2B2E"/>
      <path d="M283.996,106.57 L282.296,106.832 L281.622,105.646 L282.771,104.549 C282.771,104.549 283.289,105.559 283.996,106.57 z" fill-opacity="0" stroke="#2D2B2E" stroke-width="0.053"/>
      <path d="M286.506,108.256 L285.162,109.345 L283.995,108.66 L284.45,107.127 C284.45,107.127 285.396,107.738 286.506,108.256" fill="#2D2B2E"/>
      <path d="M287.006,108.756 L285.662,109.845 L284.495,109.16 L284.95,107.627 C284.95,107.627 285.896,108.238 287.006,108.756 z" fill-opacity="0" stroke="#2D2B2E" stroke-width="0.053"/>
      <path d="M291.013,108.981 L290.387,110.606 L289.037,110.605 L288.677,109.047 C288.677,109.047 289.796,109.096 291.013,108.981" fill="#2D2B2E"/>
      <path d="M291.513,109.481 L290.887,111.106 L289.537,111.105 L289.177,109.547 C289.177,109.547 290.296,109.596 291.513,109.481 z" fill-opacity="0" stroke="#2D2B2E" stroke-width="0.053"/>
      <path d="M295.751,95.888 L297.451,95.627 L298.125,96.812 L296.975,97.908 C296.975,97.908 296.458,96.899 295.751,95.888" fill="#2D2B2E"/>
      <path d="M296.251,96.388 L297.951,96.127 L298.625,97.312 L297.475,98.408 C297.475,98.408 296.958,97.399 296.251,96.388 z" fill-opacity="0" stroke="#2D2B2E" stroke-width="0.053"/>
      <path d="M294.856,107.149 L295.114,108.872 L293.945,109.556 L292.865,108.391 C292.865,108.391 293.859,107.866 294.856,107.149" fill="#2D2B2E"/>
      <path d="M295.356,107.649 L295.614,109.372 L294.445,110.056 L293.365,108.891 C293.365,108.891 294.359,108.366 295.356,107.649 z" fill-opacity="0" stroke="#2D2B2E" stroke-width="0.053"/>
      <path d="M290.196,108.916 C294.115,108.916 297.293,105.692 297.293,101.715 C297.293,97.738 294.115,94.514 290.196,94.514 C286.277,94.514 283.099,97.738 283.099,101.715 C283.099,105.692 286.277,108.916 290.196,108.916 z" fill-opacity="0" stroke="#2D2B2E" stroke-width="0.861"/>
      <path d="M290.354,105.457 C292.314,105.457 293.902,103.843 293.902,101.857 C293.902,99.868 292.314,98.254 290.354,98.254 C288.394,98.254 286.806,99.868 286.806,101.857 C286.806,103.843 288.394,105.457 290.354,105.457 z" fill-opacity="0" stroke="#2D2B2E" stroke-width="0.43"/>
    </g>
    <g>
      <g>
        <path d="M280.714,151.9 L283.561,155.775 L281.77,159.142 L277.764,157.829 C277.764,157.829 279.36,155.102 280.714,151.9" fill="#D3DD7B"/>
        <path d="M281.214,152.4 L284.061,156.275 L282.27,159.642 L278.264,158.329 C278.264,158.329 279.86,155.602 281.214,152.4 z" fill-opacity="0" stroke="#D3DD7B" stroke-width="0.124"/>
        <path d="M281.974,140.035 L286.222,141.842 L286.219,145.734 L282.146,146.773 C282.146,146.773 282.273,143.546 281.974,140.035" fill="#D3DD7B"/>
        <path d="M282.474,140.535 L286.722,142.342 L286.719,146.234 L282.646,147.273 C282.646,147.273 282.773,144.046 282.474,140.535 z" fill-opacity="0" stroke="#D3DD7B" stroke-width="0.124"/>
        <path d="M277.523,128.752 L282.033,128.009 L283.82,131.378 L280.772,134.495 C280.772,134.495 279.397,131.629 277.523,128.752" fill="#D3DD7B"/>
        <path d="M278.023,129.252 L282.533,128.509 L284.32,131.878 L281.272,134.995 C281.272,134.995 279.897,132.129 278.023,129.252 z" fill-opacity="0" stroke="#D3DD7B" stroke-width="0.124"/>
        <path d="M261.352,166.031 C272.859,166.031 282.186,155.889 282.186,143.379 C282.186,130.867 272.859,120.725 261.352,120.725 C249.845,120.725 240.517,130.867 240.517,143.379 C240.517,155.889 249.845,166.031 261.352,166.031" fill="#D3DD7B"/>
        <path d="M261.852,166.531 C273.359,166.531 282.686,156.389 282.686,143.879 C282.686,131.367 273.359,121.225 261.852,121.225 C250.345,121.225 241.017,131.367 241.017,143.879 C241.017,156.389 250.345,166.531 261.852,166.531 z" fill-opacity="0" stroke="#D3DD7B" stroke-width="0.124"/>
        <path d="M241.875,135.467 L239.027,131.592 L240.819,128.225 L244.825,129.538 C244.825,129.538 243.228,132.265 241.875,135.467" fill="#D3DD7B"/>
        <path d="M242.375,135.967 L239.527,132.092 L241.319,128.725 L245.325,130.038 C245.325,130.038 243.728,132.765 242.375,135.967 z" fill-opacity="0" stroke="#D3DD7B" stroke-width="0.124"/>
        <path d="M247.892,125.921 L247.209,121.017 L250.308,119.076 L253.174,122.391 C253.174,122.391 250.538,123.885 247.892,125.921" fill="#D3DD7B"/>
        <path d="M248.392,126.421 L247.709,121.517 L250.808,119.576 L253.674,122.891 C253.674,122.891 251.038,124.385 248.392,126.421 z" fill-opacity="0" stroke="#D3DD7B" stroke-width="0.124"/>
        <path d="M257.375,121.097 L259.038,116.478 L262.616,116.481 L263.573,120.909 C263.573,120.909 260.603,120.772 257.375,121.097" fill="#D3DD7B"/>
        <path d="M257.875,121.597 L259.538,116.978 L263.116,116.981 L264.073,121.409 C264.073,121.409 261.103,121.272 257.875,121.597 z" fill-opacity="0" stroke="#D3DD7B" stroke-width="0.124"/>
        <path d="M268.878,122.153 L272.442,119.057 L275.539,121.004 L274.331,125.361 C274.331,125.361 271.823,123.625 268.878,122.153" fill="#D3DD7B"/>
        <path d="M269.378,122.653 L272.942,119.557 L276.039,121.504 L274.831,125.861 C274.831,125.861 272.323,124.125 269.378,122.653 z" fill-opacity="0" stroke="#D3DD7B" stroke-width="0.124"/>
        <path d="M240.853,147.638 L236.605,145.831 L236.608,141.94 L240.68,140.902 C240.68,140.902 240.554,144.129 240.853,147.638" fill="#D3DD7B"/>
        <path d="M241.353,148.138 L237.105,146.331 L237.108,142.44 L241.18,141.402 C241.18,141.402 241.054,144.629 241.353,148.138 z" fill-opacity="0" stroke="#D3DD7B" stroke-width="0.124"/>
        <path d="M245.008,157.697 L240.498,158.441 L238.711,155.071 L241.76,151.954 C241.76,151.954 243.134,154.821 245.008,157.697" fill="#D3DD7B"/>
        <path d="M245.508,158.197 L240.998,158.941 L239.211,155.571 L242.26,152.454 C242.26,152.454 243.634,155.321 245.508,158.197 z" fill-opacity="0" stroke="#D3DD7B" stroke-width="0.124"/>
        <path d="M252.994,163.912 L249.43,167.006 L246.333,165.06 L247.541,160.702 C247.541,160.702 250.049,162.44 252.994,163.912" fill="#D3DD7B"/>
        <path d="M253.494,164.412 L249.93,167.506 L246.833,165.56 L248.041,161.202 C248.041,161.202 250.549,162.94 253.494,164.412 z" fill-opacity="0" stroke="#D3DD7B" stroke-width="0.124"/>
        <path d="M264.953,165.973 L263.29,170.59 L259.712,170.587 L258.755,166.16 C258.755,166.16 261.725,166.298 264.953,165.973" fill="#D3DD7B"/>
        <path d="M265.453,166.473 L263.79,171.09 L260.212,171.087 L259.255,166.66 C259.255,166.66 262.225,166.798 265.453,166.473 z" fill-opacity="0" stroke="#D3DD7B" stroke-width="0.124"/>
        <path d="M275.147,160.761 L275.831,165.665 L272.732,167.607 L269.865,164.293 C269.865,164.293 272.502,162.799 275.147,160.761" fill="#D3DD7B"/>
        <path d="M275.647,161.261 L276.331,166.165 L273.232,168.107 L270.365,164.793 C270.365,164.793 273.002,163.299 275.647,161.261 z" fill-opacity="0" stroke="#D3DD7B" stroke-width="0.124"/>
        <path d="M261.024,148.539 C262.832,148.539 264.296,146.945 264.296,144.982 C264.296,143.016 262.832,141.424 261.024,141.424 C259.217,141.424 257.753,143.016 257.753,144.982 C257.753,146.945 259.217,148.539 261.024,148.539" fill="#2D2B2E"/>
      </g>
      <path d="M269.815,153.456 L233.32,121.131" fill-opacity="0" stroke="#2D2B2E" stroke-width="0.144"/>
      <g>
        <path d="M274.114,157.205 L269.527,148.854 C269.527,148.854 269.315,152.954 265.663,154.011 L274.114,157.205" fill="#2D2B2E"/>
        <path d="M237.113,125.903 C237.882,125.903 238.505,125.226 238.505,124.389 C238.505,123.556 237.882,122.876 237.113,122.876 C236.343,122.876 235.72,123.556 235.72,124.389 C235.72,125.226 236.343,125.903 237.113,125.903" fill="#2D2B2E"/>
        <path d="M237.613,126.403 C238.382,126.403 239.005,125.726 239.005,124.889 C239.005,124.056 238.382,123.376 237.613,123.376 C236.843,123.376 236.22,124.056 236.22,124.889 C236.22,125.726 236.843,126.403 237.613,126.403 z" fill-opacity="0" stroke="#2D2B2E" stroke-width="0.153"/>
      </g>
      <path d="M261.275,112.833 L261.275,145.397 L291.784,120.719" fill-opacity="0" stroke="#2D2B2E" stroke-width="0.288"/>
    </g>
  </g>
</svg>
